<svg width="286" height="40" viewBox="0 0 286 40" fill="none" xmlns="http://www.w3.org/2000/svg">
<rect width="286" height="40" rx="8" fill="url(#paint0_linear_1_56)"/>
<g clip-path="url(#clip0_1_56)">
<path d="M8 24.3448V23.3793H17.5V24.3448H34V28.6897H33.5V29.1724H33V29.6552H31.5V30.6207H31V31.1034H30.5V31.5862H30V32.069H27V33.0345H26.5V33.5172H26V34H18V33.5172H17.5V33.0345H17V32.069H13.5V31.5862H13V31.1034H12.5V30.6207H12V29.6552H11V29.1724H10.5V28.6897H10V25.3103H9V24.8276H8.5V24.3448H8Z" fill="#012647"/>
<path d="M12.5 7.93104H31V27.7241H12.5V7.93104Z" fill="#278EED"/>
<path d="M10.5 22.8966H12.5V23.3793H10.5V22.8966Z" fill="#278EED"/>
<path d="M13 9.86207H26.5V23.3793H13V9.86207Z" fill="#3DA2FF"/>
<path d="M26.5 14.6897H29V21.4483H26.5V14.6897Z" fill="#3DA2FF"/>
<path d="M22 23.3793H24.5V25.7931H22V23.3793Z" fill="#3DA2FF"/>
<path d="M24.5 23.3793H26.5V25.7931H24.5V23.3793Z" fill="#2E95F4"/>
<path d="M26.5 21.4483H29V23.3793H26.5V21.4483Z" fill="#2E95F4"/>
<path d="M17 9.86207H22V16.6207H17V9.86207Z" fill="#57AAFF"/>
<path d="M17 16.6207H19.5V19.0345H17V16.6207Z" fill="#57AAFF"/>
<path d="M24.5 9.86207H26.5V14.6897H24.5V9.86207Z" fill="#4BA8FF"/>
<path d="M24.5 16.6207H26.5V21.4483H24.5V16.6207Z" fill="#4BA8FF"/>
<path d="M22 19.0345H24.5V23.3793H22V19.0345Z" fill="#4BA8FF"/>
<path d="M17.5 21.4483H22V24.3448H17.5V21.4483Z" fill="#4BA8FF"/>
<path d="M12.5 25.7931H15V27.7241H12.5V25.7931Z" fill="#0D74D3"/>
<path d="M17.5 29.1724H19.5V30.1379H17.5V29.1724Z" fill="#0D74D3"/>
<path d="M31 21.4483H32V23.3793H31V21.4483Z" fill="#0D74D3"/>
<path d="M31 14.6897H32.5V19.0345H31V14.6897Z" fill="#0D74D3"/>
<path d="M29 23.3793H31V27.7241H29V23.3793Z" fill="#0D74D3"/>
<path d="M26.5 25.7931H29V27.7241H26.5V25.7931Z" fill="#0D74D3"/>
<path d="M12.5 27.7241H17.5V30.1379H12.5V27.7241Z" fill="#014E96"/>
<path d="M17.5 30.1379H26.5V32.5517H17.5V30.1379Z" fill="#014E96"/>
<path d="M26.5 27.7241H31V30.1379H26.5V27.7241Z" fill="#014E96"/>
<path d="M31 23.3793H33.5V27.7241H31V23.3793Z" fill="#014E96"/>
<path d="M17.5 6H26.5V7.93103H17.5V6Z" fill="#0157A9"/>
<path d="M8 14.6897H10.5V23.3793H8V14.6897Z" fill="#0157A9"/>
<path d="M10.5 23.3793H12.5V27.7241H10.5V23.3793Z" fill="#0157A9"/>
<path d="M29 14.6897H31V16.6207H29V14.6897Z" fill="#3198F7"/>
<path d="M33.5 24.3448V23.3793H36V24.3448H35.5V24.8276H35V25.3103H34V24.3448H33.5Z" fill="#132E2F"/>
<path d="M17.5 24.3448H22V25.7931H17.5V24.3448Z" fill="#6EC310"/>
<path d="M19.5 12.7586H20V13.7241H19.5V12.7586Z" fill="#6EC310"/>
<path d="M20 9.86208H21.5V10.8276H20V9.86208Z" fill="#6EC310"/>
<path d="M20 14.6897V13.7241H20.5V14.2069H21V14.6897H20Z" fill="#6EC310"/>
<path d="M15 12.2759V9.86208H19V10.8276H18.5V11.3104H19V12.2759H15Z" fill="#6EC310"/>
<path d="M15 16.6207V12.2759H12.5V16.6207H10.5V22.8966H12.5V23.3793H15V22.4138H14V21.931H13V20.4828H13.5V20H15V20.4828H15.5V20.9655H16V19.0345H17V16.6207H15Z" fill="#6EC310"/>
<path d="M17.5 27.7241V25.7931H25V27.7241H17.5Z" fill="#57B10F"/>
<path d="M10.5 16.6207V14.6897H12.5V16.6207H10.5Z" fill="#57B10F"/>
<path d="M12.5 12.2759V9.86208H15V12.2759H12.5Z" fill="#57B10F"/>
<path d="M17.5 9.86207V7.93104H22V8.89656H21.5V9.86207H20V9.37931H19V9.86207H17.5Z" fill="#57B10F"/>
<path d="M12.5 23.8621V23.3793H15V23.8621H16V24.8276H16.5V25.3103H17.5V25.7931H16V25.3103H15.5V24.8276H14V23.8621H12.5Z" fill="#58AE01"/>
<path d="M27.5 11.3104V9.86208H31V14.2069H30.5V12.2759H29V11.3104H27.5Z" fill="#448001"/>
<path d="M32.5 14.6897H33.5V23.3793H32V21.4483H31V19.0345H32.5V14.6897Z" fill="#448001"/>
<path d="M26.5 30.1379V27.7241H17.5V29.1724H19.5V30.1379H26.5Z" fill="#448001"/>
<path d="M12.5 9.86207V7.93104H17.5V9.86207H12.5V14.6897H10.5V9.86207H12.5Z" fill="#2A5401"/>
<path d="M26.5 9.86207V7.93104H31V9.86207H33.5V14.6897H36V23.3793H33.5V14.6897H31V9.86207H26.5Z" fill="#2A5401"/>
<path d="M21 30.6207V30.1379H25V30.6207H24.5V32.069H24V32.5517H22.5V31.5862H21.5V30.6207H21Z" fill="#2A5401"/>
<path d="M33.5 24.3448V23.3793H32.5V23.8621H33V24.3448H33.5Z" fill="#2A5401"/>
<path d="M15 16.6207V12.2759H19.5V16.6207H15Z" fill="white"/>
</g>
<g filter="url(#filter0_d_1_56)">
<path d="M44.2614 25.5H42.3977L46.5852 13.8636H48.6136L52.8011 25.5H50.9375L47.6477 15.9773H47.5568L44.2614 25.5ZM44.5739 20.9432H50.6193V22.4205H44.5739V20.9432ZM60.7173 16.7727L57.5525 25.5H55.7344L52.5639 16.7727H54.3878L56.598 23.4886H56.6889L58.8935 16.7727H60.7173ZM64.6037 25.6932C64.0506 25.6932 63.5506 25.5909 63.1037 25.3864C62.6567 25.178 62.3025 24.8769 62.0412 24.483C61.7836 24.089 61.6548 23.6061 61.6548 23.0341C61.6548 22.5417 61.7495 22.1364 61.9389 21.8182C62.1283 21.5 62.384 21.2481 62.706 21.0625C63.0279 20.8769 63.3878 20.7367 63.7855 20.642C64.1832 20.5473 64.5885 20.4754 65.0014 20.4261C65.5241 20.3655 65.9484 20.3163 66.2741 20.2784C66.5999 20.2367 66.8366 20.1705 66.9844 20.0795C67.1321 19.9886 67.206 19.8409 67.206 19.6364V19.5966C67.206 19.1004 67.0658 18.7159 66.7855 18.4432C66.509 18.1705 66.0961 18.0341 65.5469 18.0341C64.9749 18.0341 64.5241 18.161 64.1946 18.4148C63.8688 18.6648 63.6435 18.9432 63.5185 19.25L61.9219 18.8864C62.1113 18.3561 62.3878 17.928 62.7514 17.6023C63.1188 17.2727 63.5412 17.0341 64.0185 16.8864C64.4957 16.7348 64.9976 16.6591 65.5241 16.6591C65.8726 16.6591 66.2419 16.7008 66.6321 16.7841C67.026 16.8636 67.3935 17.0114 67.7344 17.2273C68.0791 17.4432 68.3613 17.7519 68.581 18.1534C68.8006 18.5511 68.9105 19.0682 68.9105 19.7045V25.5H67.2514V24.3068H67.1832C67.0734 24.5265 66.9086 24.7424 66.6889 24.9545C66.4692 25.1667 66.187 25.3428 65.8423 25.483C65.4976 25.6231 65.0847 25.6932 64.6037 25.6932ZM64.973 24.3295C65.4427 24.3295 65.8442 24.2367 66.1775 24.0511C66.5147 23.8655 66.7703 23.6231 66.9446 23.3239C67.1226 23.0208 67.2116 22.697 67.2116 22.3523V21.2273C67.151 21.2879 67.0336 21.3447 66.8594 21.3977C66.6889 21.447 66.4938 21.4905 66.2741 21.5284C66.0544 21.5625 65.8404 21.5947 65.6321 21.625C65.4238 21.6515 65.2495 21.6742 65.1094 21.6932C64.7798 21.7348 64.4787 21.8049 64.206 21.9034C63.937 22.0019 63.7211 22.1439 63.5582 22.3295C63.3991 22.5114 63.3196 22.7538 63.3196 23.0568C63.3196 23.4773 63.4749 23.7955 63.7855 24.0114C64.0961 24.2235 64.4919 24.3295 64.973 24.3295ZM71.1733 25.5V16.7727H72.8721V25.5H71.1733ZM72.0312 15.4261C71.7358 15.4261 71.482 15.3276 71.2699 15.1307C71.0615 14.9299 70.9574 14.6913 70.9574 14.4148C70.9574 14.1345 71.0615 13.8958 71.2699 13.6989C71.482 13.4981 71.7358 13.3977 72.0312 13.3977C72.3267 13.3977 72.5786 13.4981 72.7869 13.6989C72.999 13.8958 73.1051 14.1345 73.1051 14.4148C73.1051 14.6913 72.999 14.9299 72.7869 15.1307C72.5786 15.3276 72.3267 15.4261 72.0312 15.4261ZM76.8565 13.8636V25.5H75.1577V13.8636H76.8565ZM81.6818 25.6932C81.1288 25.6932 80.6288 25.5909 80.1818 25.3864C79.7348 25.178 79.3807 24.8769 79.1193 24.483C78.8617 24.089 78.7329 23.6061 78.7329 23.0341C78.7329 22.5417 78.8276 22.1364 79.017 21.8182C79.2064 21.5 79.4621 21.2481 79.7841 21.0625C80.106 20.8769 80.4659 20.7367 80.8636 20.642C81.2613 20.5473 81.6666 20.4754 82.0795 20.4261C82.6023 20.3655 83.0265 20.3163 83.3523 20.2784C83.678 20.2367 83.9148 20.1705 84.0625 20.0795C84.2102 19.9886 84.2841 19.8409 84.2841 19.6364V19.5966C84.2841 19.1004 84.1439 18.7159 83.8636 18.4432C83.5871 18.1705 83.1742 18.0341 82.625 18.0341C82.053 18.0341 81.6023 18.161 81.2727 18.4148C80.947 18.6648 80.7216 18.9432 80.5966 19.25L79 18.8864C79.1894 18.3561 79.4659 17.928 79.8295 17.6023C80.197 17.2727 80.6193 17.0341 81.0966 16.8864C81.5738 16.7348 82.0757 16.6591 82.6023 16.6591C82.9507 16.6591 83.3201 16.7008 83.7102 16.7841C84.1041 16.8636 84.4716 17.0114 84.8125 17.2273C85.1572 17.4432 85.4394 17.7519 85.6591 18.1534C85.8788 18.5511 85.9886 19.0682 85.9886 19.7045V25.5H84.3295V24.3068H84.2613C84.1515 24.5265 83.9867 24.7424 83.767 24.9545C83.5473 25.1667 83.2651 25.3428 82.9204 25.483C82.5757 25.6231 82.1629 25.6932 81.6818 25.6932ZM82.0511 24.3295C82.5208 24.3295 82.9223 24.2367 83.2557 24.0511C83.5928 23.8655 83.8485 23.6231 84.0227 23.3239C84.2007 23.0208 84.2898 22.697 84.2898 22.3523V21.2273C84.2291 21.2879 84.1117 21.3447 83.9375 21.3977C83.767 21.447 83.5719 21.4905 83.3523 21.5284C83.1326 21.5625 82.9185 21.5947 82.7102 21.625C82.5019 21.6515 82.3276 21.6742 82.1875 21.6932C81.8579 21.7348 81.5568 21.8049 81.2841 21.9034C81.0151 22.0019 80.7992 22.1439 80.6363 22.3295C80.4773 22.5114 80.3977 22.7538 80.3977 23.0568C80.3977 23.4773 80.553 23.7955 80.8636 24.0114C81.1742 24.2235 81.5701 24.3295 82.0511 24.3295ZM88.3878 25.5V13.8636H90.0866V18.1875H90.1889C90.2874 18.0057 90.4294 17.7955 90.615 17.5568C90.8006 17.3182 91.0582 17.1098 91.3878 16.9318C91.7173 16.75 92.1529 16.6591 92.6946 16.6591C93.3991 16.6591 94.0279 16.8371 94.5809 17.1932C95.134 17.5492 95.5677 18.0625 95.8821 18.733C96.2003 19.4034 96.3594 20.2102 96.3594 21.1534C96.3594 22.0966 96.2022 22.9053 95.8878 23.5795C95.5734 24.25 95.1415 24.767 94.5923 25.1307C94.0431 25.4905 93.4162 25.6705 92.7116 25.6705C92.1813 25.6705 91.7476 25.5814 91.4105 25.4034C91.0772 25.2254 90.8158 25.017 90.6264 24.7784C90.437 24.5398 90.2912 24.3276 90.1889 24.142H90.0469V25.5H88.3878ZM90.0525 21.1364C90.0525 21.75 90.1416 22.2879 90.3196 22.75C90.4976 23.2121 90.7552 23.5739 91.0923 23.8352C91.4294 24.0928 91.8423 24.2216 92.3309 24.2216C92.8385 24.2216 93.2628 24.0871 93.6037 23.8182C93.9446 23.5455 94.2022 23.1761 94.3764 22.7102C94.5544 22.2443 94.6434 21.7197 94.6434 21.1364C94.6434 20.5606 94.5563 20.0436 94.3821 19.5852C94.2116 19.1269 93.954 18.7651 93.6094 18.5C93.2684 18.2348 92.8423 18.1023 92.3309 18.1023C91.8385 18.1023 91.4219 18.2292 91.0809 18.483C90.7438 18.7367 90.4881 19.0909 90.3139 19.5455C90.1397 20 90.0525 20.5303 90.0525 21.1364ZM99.9659 13.8636V25.5H98.267V13.8636H99.9659ZM106.013 25.6761C105.153 25.6761 104.412 25.4924 103.791 25.125C103.174 24.7538 102.696 24.233 102.359 23.5625C102.026 22.8883 101.859 22.0985 101.859 21.1932C101.859 20.2992 102.026 19.5114 102.359 18.8295C102.696 18.1477 103.166 17.6155 103.768 17.233C104.375 16.8504 105.083 16.6591 105.893 16.6591C106.386 16.6591 106.863 16.7405 107.325 16.9034C107.787 17.0663 108.202 17.322 108.57 17.6705C108.937 18.0189 109.227 18.4716 109.439 19.0284C109.651 19.5814 109.757 20.2538 109.757 21.0455V21.6477H102.82V20.375H108.092C108.092 19.928 108.001 19.5322 107.82 19.1875C107.638 18.839 107.382 18.5644 107.053 18.3636C106.727 18.1629 106.344 18.0625 105.905 18.0625C105.428 18.0625 105.011 18.1799 104.655 18.4148C104.303 18.6458 104.03 18.9489 103.837 19.3239C103.647 19.6951 103.553 20.0985 103.553 20.5341V21.5284C103.553 22.1117 103.655 22.608 103.859 23.017C104.068 23.4261 104.357 23.7386 104.729 23.9545C105.1 24.1667 105.534 24.2727 106.03 24.2727C106.352 24.2727 106.645 24.2273 106.91 24.1364C107.176 24.0417 107.405 23.9015 107.598 23.7159C107.791 23.5303 107.939 23.3011 108.041 23.0284L109.649 23.3182C109.52 23.7917 109.289 24.2064 108.956 24.5625C108.626 24.9148 108.212 25.1894 107.712 25.3864C107.215 25.5795 106.649 25.6761 106.013 25.6761ZM119.553 25.6761C118.734 25.6761 118.02 25.4886 117.41 25.1136C116.801 24.7386 116.327 24.214 115.99 23.5398C115.653 22.8655 115.484 22.0776 115.484 21.1761C115.484 20.2708 115.653 19.4792 115.99 18.8011C116.327 18.1231 116.801 17.5966 117.41 17.2216C118.02 16.8466 118.734 16.6591 119.553 16.6591C120.371 16.6591 121.085 16.8466 121.695 17.2216C122.304 17.5966 122.778 18.1231 123.115 18.8011C123.452 19.4792 123.621 20.2708 123.621 21.1761C123.621 22.0776 123.452 22.8655 123.115 23.5398C122.778 24.214 122.304 24.7386 121.695 25.1136C121.085 25.4886 120.371 25.6761 119.553 25.6761ZM119.558 24.25C120.089 24.25 120.528 24.1098 120.876 23.8295C121.225 23.5492 121.482 23.1761 121.649 22.7102C121.82 22.2443 121.905 21.7311 121.905 21.1705C121.905 20.6136 121.82 20.1023 121.649 19.6364C121.482 19.1667 121.225 18.7898 120.876 18.5057C120.528 18.2216 120.089 18.0795 119.558 18.0795C119.024 18.0795 118.581 18.2216 118.229 18.5057C117.88 18.7898 117.621 19.1667 117.45 19.6364C117.284 20.1023 117.2 20.6136 117.2 21.1705C117.2 21.7311 117.284 22.2443 117.45 22.7102C117.621 23.1761 117.88 23.5492 118.229 23.8295C118.581 24.1098 119.024 24.25 119.558 24.25ZM127.216 20.3182V25.5H125.517V16.7727H127.148V18.1932H127.256C127.456 17.7311 127.771 17.3598 128.199 17.0795C128.631 16.7992 129.174 16.6591 129.83 16.6591C130.424 16.6591 130.945 16.7841 131.392 17.0341C131.839 17.2803 132.186 17.6477 132.432 18.1364C132.678 18.625 132.801 19.2292 132.801 19.9489V25.5H131.102V20.1534C131.102 19.5208 130.937 19.0265 130.608 18.6705C130.278 18.3106 129.826 18.1307 129.25 18.1307C128.856 18.1307 128.506 18.2159 128.199 18.3864C127.896 18.5568 127.655 18.8068 127.477 19.1364C127.303 19.4621 127.216 19.8561 127.216 20.3182Z" fill="#E8E8E8"/>
<path d="M138.936 26V13.6364H144.043C144.969 13.6364 145.767 13.8175 146.44 14.1797C147.116 14.5379 147.637 15.0389 148.003 15.6829C148.369 16.3228 148.553 17.0674 148.553 17.9165C148.553 18.7698 148.365 19.5163 147.991 20.1562C147.621 20.7921 147.092 21.2852 146.403 21.6353C145.715 21.9854 144.898 22.1605 143.952 22.1605H140.801V19.8061H143.397C143.848 19.8061 144.224 19.7276 144.526 19.5707C144.832 19.4137 145.063 19.1944 145.22 18.9126C145.377 18.6269 145.456 18.2949 145.456 17.9165C145.456 17.5342 145.377 17.2042 145.22 16.9265C145.063 16.6448 144.832 16.4274 144.526 16.2745C144.22 16.1216 143.844 16.0451 143.397 16.0451H141.924V26H138.936ZM152.978 13.6364V26H150.026V13.6364H152.978ZM157.471 26.157C156.879 26.157 156.354 26.0584 155.895 25.8611C155.44 25.6599 155.08 25.3581 154.814 24.9556C154.553 24.5491 154.422 24.04 154.422 23.4283C154.422 22.9131 154.512 22.4785 154.694 22.1243C154.875 21.7701 155.124 21.4824 155.442 21.261C155.76 21.0397 156.126 20.8726 156.541 20.7599C156.955 20.6432 157.398 20.5647 157.869 20.5245C158.396 20.4762 158.821 20.4259 159.143 20.3736C159.465 20.3172 159.698 20.2388 159.843 20.1381C159.992 20.0335 160.066 19.8866 160.066 19.6974V19.6673C160.066 19.3574 159.96 19.1179 159.747 18.9489C159.533 18.7798 159.245 18.6953 158.883 18.6953C158.493 18.6953 158.179 18.7798 157.941 18.9489C157.704 19.1179 157.553 19.3513 157.489 19.6491L154.766 19.5526C154.847 18.9891 155.054 18.486 155.388 18.0433C155.726 17.5966 156.189 17.2464 156.776 16.9929C157.368 16.7353 158.078 16.6065 158.907 16.6065C159.499 16.6065 160.044 16.677 160.543 16.8178C161.042 16.9547 161.477 17.1559 161.847 17.4215C162.218 17.6831 162.503 18.0051 162.705 18.3874C162.91 18.7698 163.012 19.2064 163.012 19.6974V26H160.235V24.7081H160.163C159.998 25.022 159.787 25.2876 159.529 25.505C159.276 25.7223 158.976 25.8853 158.63 25.994C158.288 26.1026 157.901 26.157 157.471 26.157ZM158.382 24.2251C158.7 24.2251 158.986 24.1607 159.239 24.032C159.497 23.9032 159.702 23.7261 159.855 23.5007C160.008 23.2713 160.085 23.0057 160.085 22.7038V21.8224C160 21.8667 159.897 21.907 159.777 21.9432C159.66 21.9794 159.531 22.0136 159.39 22.0458C159.249 22.078 159.105 22.1062 158.956 22.1303C158.807 22.1545 158.664 22.1766 158.527 22.1967C158.249 22.241 158.012 22.3094 157.815 22.402C157.622 22.4946 157.473 22.6153 157.368 22.7642C157.267 22.9091 157.217 23.0821 157.217 23.2834C157.217 23.5892 157.326 23.8227 157.543 23.9837C157.764 24.1446 158.044 24.2251 158.382 24.2251ZM167.77 20.7116V26H164.818V16.7273H167.625V18.4297H167.727C167.933 17.8622 168.283 17.4175 168.778 17.0955C169.273 16.7695 169.862 16.6065 170.547 16.6065C171.199 16.6065 171.764 16.7534 172.243 17.0472C172.726 17.337 173.1 17.7435 173.366 18.2667C173.635 18.7859 173.768 19.3936 173.764 20.0898V26H170.812V20.6694C170.816 20.1542 170.685 19.7518 170.42 19.462C170.158 19.1722 169.794 19.0273 169.327 19.0273C169.017 19.0273 168.744 19.0958 168.506 19.2326C168.273 19.3654 168.092 19.5566 167.963 19.8061C167.838 20.0556 167.774 20.3575 167.77 20.7116ZM179.926 26.1751C178.957 26.1751 178.119 25.9839 177.415 25.6016C176.715 25.2152 176.176 24.6658 175.797 23.9535C175.423 23.2371 175.236 22.3859 175.236 21.3999C175.236 20.442 175.425 19.6049 175.803 18.8885C176.182 18.1681 176.715 17.6087 177.403 17.2102C178.091 16.8078 178.902 16.6065 179.836 16.6065C180.496 16.6065 181.1 16.7092 181.647 16.9144C182.194 17.1197 182.667 17.4235 183.066 17.826C183.464 18.2285 183.774 18.7255 183.995 19.3171C184.217 19.9047 184.327 20.5788 184.327 21.3395V22.076H176.268V20.3615H181.581C181.577 20.0476 181.502 19.7679 181.357 19.5224C181.212 19.2769 181.013 19.0857 180.76 18.9489C180.51 18.808 180.222 18.7376 179.896 18.7376C179.566 18.7376 179.27 18.812 179.009 18.9609C178.747 19.1058 178.54 19.305 178.387 19.5586C178.234 19.8081 178.154 20.0919 178.146 20.4098V22.1545C178.146 22.5328 178.22 22.8648 178.369 23.1506C178.518 23.4323 178.729 23.6516 179.003 23.8086C179.276 23.9656 179.602 24.044 179.981 24.044C180.242 24.044 180.48 24.0078 180.693 23.9354C180.906 23.8629 181.09 23.7563 181.242 23.6154C181.395 23.4745 181.51 23.3015 181.587 23.0962L184.297 23.1747C184.184 23.7824 183.937 24.3117 183.555 24.7624C183.176 25.2092 182.679 25.5573 182.064 25.8068C181.448 26.0523 180.735 26.1751 179.926 26.1751ZM191.069 16.7273V18.9006H185.219V16.7273H191.069ZM186.445 14.5057H189.397V23.0842C189.397 23.2653 189.425 23.4122 189.481 23.5249C189.542 23.6335 189.628 23.712 189.741 23.7603C189.854 23.8046 189.989 23.8267 190.145 23.8267C190.258 23.8267 190.377 23.8166 190.502 23.7965C190.63 23.7724 190.727 23.7522 190.791 23.7361L191.238 25.8672C191.097 25.9074 190.898 25.9577 190.64 26.0181C190.387 26.0785 190.083 26.1167 189.729 26.1328C189.037 26.165 188.443 26.0845 187.948 25.8913C187.457 25.6941 187.081 25.3883 186.819 24.9737C186.562 24.5592 186.437 24.038 186.445 23.4102V14.5057ZM196.228 13.6364H199.928L203.068 21.2912H203.212L206.352 13.6364H210.052V26H207.142V18.4055H207.04L204.07 25.9215H202.21L199.24 18.3633H199.137V26H196.228V13.6364ZM211.916 26V16.7273H214.868V26H211.916ZM213.395 15.6467C212.981 15.6467 212.624 15.5098 212.327 15.2361C212.029 14.9584 211.88 14.6244 211.88 14.234C211.88 13.8477 212.029 13.5176 212.327 13.244C212.624 12.9663 212.981 12.8274 213.395 12.8274C213.814 12.8274 214.17 12.9663 214.464 13.244C214.762 13.5176 214.91 13.8477 214.91 14.234C214.91 14.6244 214.762 14.9584 214.464 15.2361C214.17 15.5098 213.814 15.6467 213.395 15.6467ZM219.699 20.7116V26H216.747V16.7273H219.554V18.4297H219.657C219.862 17.8622 220.212 17.4175 220.707 17.0955C221.202 16.7695 221.792 16.6065 222.476 16.6065C223.128 16.6065 223.694 16.7534 224.173 17.0472C224.656 17.337 225.03 17.7435 225.295 18.2667C225.565 18.7859 225.698 19.3936 225.694 20.0898V26H222.742V20.6694C222.746 20.1542 222.615 19.7518 222.349 19.462C222.088 19.1722 221.724 19.0273 221.257 19.0273C220.947 19.0273 220.673 19.0958 220.436 19.2326C220.202 19.3654 220.021 19.5566 219.892 19.8061C219.768 20.0556 219.703 20.3575 219.699 20.7116ZM231.856 26.1751C230.886 26.1751 230.049 25.9839 229.345 25.6016C228.644 25.2152 228.105 24.6658 227.727 23.9535C227.353 23.2371 227.165 22.3859 227.165 21.3999C227.165 20.442 227.355 19.6049 227.733 18.8885C228.111 18.1681 228.644 17.6087 229.333 17.2102C230.021 16.8078 230.832 16.6065 231.766 16.6065C232.426 16.6065 233.029 16.7092 233.577 16.9144C234.124 17.1197 234.597 17.4235 234.995 17.826C235.394 18.2285 235.704 18.7255 235.925 19.3171C236.146 19.9047 236.257 20.5788 236.257 21.3395V22.076H228.198V20.3615H233.51C233.506 20.0476 233.432 19.7679 233.287 19.5224C233.142 19.2769 232.943 19.0857 232.689 18.9489C232.44 18.808 232.152 18.7376 231.826 18.7376C231.496 18.7376 231.2 18.812 230.939 18.9609C230.677 19.1058 230.47 19.305 230.317 19.5586C230.164 19.8081 230.083 20.0919 230.075 20.4098V22.1545C230.075 22.5328 230.15 22.8648 230.299 23.1506C230.448 23.4323 230.659 23.6516 230.932 23.8086C231.206 23.9656 231.532 24.044 231.91 24.044C232.172 24.044 232.41 24.0078 232.623 23.9354C232.836 23.8629 233.019 23.7563 233.172 23.6154C233.325 23.4745 233.44 23.3015 233.516 23.0962L236.227 23.1747C236.114 23.7824 235.867 24.3117 235.484 24.7624C235.106 25.2092 234.609 25.5573 233.993 25.8068C233.377 26.0523 232.665 26.1751 231.856 26.1751ZM242.093 26.1751C241.115 26.1751 240.276 25.9738 239.576 25.5714C238.88 25.1689 238.344 24.6095 237.97 23.8931C237.596 23.1727 237.409 22.3396 237.409 21.3938C237.409 20.444 237.596 19.6109 237.97 18.8945C238.348 18.1741 238.886 17.6127 239.582 17.2102C240.282 16.8078 241.117 16.6065 242.087 16.6065C242.944 16.6065 243.691 16.7615 244.327 17.0714C244.967 17.3813 245.466 17.82 245.824 18.3874C246.186 18.9509 246.377 19.6129 246.398 20.3736H243.639C243.582 19.8987 243.421 19.5264 243.156 19.2567C242.894 18.9871 242.552 18.8523 242.129 18.8523C241.787 18.8523 241.488 18.9489 241.23 19.142C240.972 19.3312 240.771 19.6129 240.626 19.9872C240.485 20.3575 240.415 20.8163 240.415 21.3636C240.415 21.911 240.485 22.3738 240.626 22.7521C240.771 23.1264 240.972 23.4102 241.23 23.6033C241.488 23.7925 241.787 23.8871 242.129 23.8871C242.403 23.8871 242.645 23.8287 242.854 23.712C243.067 23.5953 243.242 23.4242 243.379 23.1989C243.516 22.9695 243.602 22.6918 243.639 22.3658H246.398C246.369 23.1304 246.178 23.7985 245.824 24.37C245.474 24.9415 244.981 25.3862 244.345 25.7042C243.713 26.0181 242.963 26.1751 242.093 26.1751ZM247.908 26V16.7273H250.776V18.4176H250.872C251.041 17.8059 251.317 17.3511 251.7 17.0533C252.082 16.7514 252.527 16.6005 253.034 16.6005C253.171 16.6005 253.311 16.6106 253.456 16.6307C253.601 16.6468 253.736 16.6729 253.861 16.7092V19.2749C253.72 19.2266 253.535 19.1883 253.305 19.1602C253.08 19.132 252.879 19.1179 252.702 19.1179C252.351 19.1179 252.036 19.1964 251.754 19.3533C251.476 19.5063 251.257 19.7216 251.096 19.9993C250.939 20.273 250.86 20.5949 250.86 20.9652V26H247.908ZM257.329 26.157C256.737 26.157 256.212 26.0584 255.753 25.8611C255.299 25.6599 254.938 25.3581 254.673 24.9556C254.411 24.5491 254.28 24.04 254.28 23.4283C254.28 22.9131 254.371 22.4785 254.552 22.1243C254.733 21.7701 254.983 21.4824 255.301 21.261C255.618 21.0397 255.985 20.8726 256.399 20.7599C256.814 20.6432 257.257 20.5647 257.727 20.5245C258.255 20.4762 258.679 20.4259 259.001 20.3736C259.323 20.3172 259.557 20.2388 259.701 20.1381C259.85 20.0335 259.925 19.8866 259.925 19.6974V19.6673C259.925 19.3574 259.818 19.1179 259.605 18.9489C259.392 18.7798 259.104 18.6953 258.742 18.6953C258.351 18.6953 258.037 18.7798 257.8 18.9489C257.562 19.1179 257.411 19.3513 257.347 19.6491L254.624 19.5526C254.705 18.9891 254.912 18.486 255.246 18.0433C255.584 17.5966 256.047 17.2464 256.635 16.9929C257.226 16.7353 257.937 16.6065 258.766 16.6065C259.357 16.6065 259.903 16.677 260.402 16.8178C260.901 16.9547 261.335 17.1559 261.706 17.4215C262.076 17.6831 262.362 18.0051 262.563 18.3874C262.768 18.7698 262.871 19.2064 262.871 19.6974V26H260.094V24.7081H260.021C259.856 25.022 259.645 25.2876 259.388 25.505C259.134 25.7223 258.834 25.8853 258.488 25.994C258.146 26.1026 257.76 26.157 257.329 26.157ZM258.241 24.2251C258.558 24.2251 258.844 24.1607 259.098 24.032C259.355 23.9032 259.561 23.7261 259.714 23.5007C259.866 23.2713 259.943 23.0057 259.943 22.7038V21.8224C259.858 21.8667 259.756 21.907 259.635 21.9432C259.518 21.9794 259.39 22.0136 259.249 22.0458C259.108 22.078 258.963 22.1062 258.814 22.1303C258.665 22.1545 258.522 22.1766 258.385 22.1967C258.108 22.241 257.87 22.3094 257.673 22.402C257.48 22.4946 257.331 22.6153 257.226 22.7642C257.126 22.9091 257.075 23.0821 257.075 23.2834C257.075 23.5892 257.184 23.8227 257.401 23.9837C257.623 24.1446 257.902 24.2251 258.241 24.2251ZM269.946 16.7273V18.9006L263.982 18.9006V16.7273H269.946ZM265.225 26V16.2564C265.225 15.54 265.36 14.9464 265.63 14.4755C265.899 14.0006 266.274 13.6464 266.753 13.413C267.232 13.1755 267.785 13.0568 268.413 13.0568C268.823 13.0568 269.21 13.089 269.572 13.1534C269.938 13.2138 270.21 13.2681 270.387 13.3164L269.916 15.4776C269.807 15.4414 269.674 15.4112 269.518 15.3871C269.365 15.3629 269.22 15.3509 269.083 15.3509C268.737 15.3509 268.499 15.4273 268.37 15.5803C268.242 15.7332 268.177 15.9425 268.177 16.2081V26H265.225ZM276.6 16.7273V18.9006H270.751V16.7273H276.6ZM271.976 14.5057H274.928V23.0842C274.928 23.2653 274.956 23.4122 275.013 23.5249C275.073 23.6335 275.16 23.712 275.272 23.7603C275.385 23.8046 275.52 23.8267 275.677 23.8267C275.789 23.8267 275.908 23.8166 276.033 23.7965C276.162 23.7724 276.258 23.7522 276.323 23.7361L276.769 25.8672C276.629 25.9074 276.429 25.9577 276.172 26.0181C275.918 26.0785 275.614 26.1167 275.26 26.1328C274.568 26.165 273.974 26.0845 273.479 25.8913C272.988 25.6941 272.612 25.3883 272.35 24.9737C272.093 24.5592 271.968 24.038 271.976 23.4102V14.5057Z" fill="url(#paint1_linear_1_56)"/>
</g>
<rect x="1.07143" y="1.07143" width="283.857" height="37.8571" rx="6.92857" stroke="white" stroke-opacity="0.15" stroke-width="2.14286"/>
<defs>
<filter id="filter0_d_1_56" x="36.2857" y="4.78571" width="247.428" height="30.4286" filterUnits="userSpaceOnUse" color-interpolation-filters="sRGB">
<feFlood flood-opacity="0" result="BackgroundImageFix"/>
<feColorMatrix in="SourceAlpha" type="matrix" values="0 0 0 0 0 0 0 0 0 0 0 0 0 0 0 0 0 0 127 0" result="hardAlpha"/>
<feOffset/>
<feGaussianBlur stdDeviation="2.85714"/>
<feComposite in2="hardAlpha" operator="out"/>
<feColorMatrix type="matrix" values="0 0 0 0 0 0 0 0 0 0 0 0 0 0 0 0 0 0 0.25 0"/>
<feBlend mode="normal" in2="BackgroundImageFix" result="effect1_dropShadow_1_56"/>
<feBlend mode="normal" in="SourceGraphic" in2="effect1_dropShadow_1_56" result="shape"/>
</filter>
<linearGradient id="paint0_linear_1_56" x1="143" y1="0" x2="143" y2="40" gradientUnits="userSpaceOnUse">
<stop stop-color="#102944"/>
<stop offset="1" stop-color="#031121"/>
</linearGradient>
<linearGradient id="paint1_linear_1_56" x1="138" y1="20" x2="273.5" y2="20" gradientUnits="userSpaceOnUse">
<stop stop-color="#00FF19"/>
<stop offset="0.583333" stop-color="#3DA2FF"/>
</linearGradient>
<clipPath id="clip0_1_56">
<rect width="28" height="28" fill="white" transform="translate(8 6)"/>
</clipPath>
</defs>
</svg>
