<svg width="283" height="41" viewBox="0 0 283 41" fill="none" xmlns="http://www.w3.org/2000/svg">
<rect width="283" height="41" rx="8" fill="url(#paint0_linear_1_56)"/>
<g clip-path="url(#clip0_1_56)">
<path d="M7.99999 25V24H17.5V25H34V29.5H33.5V30H33V30.5H31.5V31.5H31V32H30.5V32.5H30V33H27V34H26.5V34.5H26V35H18V34.5H17.5V34H17V33H13.5V32.5H13V32H12.5V31.5H12V30.5H11V30H10.5V29.5H9.99999V26H8.99999V25.5H8.49999V25H7.99999Z" fill="#012647"/>
<path d="M12.5 8H31V28.5H12.5V8Z" fill="#278EED"/>
<path d="M10.5 23.5H12.5V24H10.5V23.5Z" fill="#278EED"/>
<path d="M13 10H26.5V24H13V10Z" fill="#3DA2FF"/>
<path d="M26.5 15H29V22H26.5V15Z" fill="#3DA2FF"/>
<path d="M22 24H24.5V26.5H22V24Z" fill="#3DA2FF"/>
<path d="M24.5 24H26.5V26.5H24.5V24Z" fill="#2E95F4"/>
<path d="M26.5 22H29V24H26.5V22Z" fill="#2E95F4"/>
<path d="M17 10H22V17H17V10Z" fill="#57AAFF"/>
<path d="M17 17H19.5V19.5H17V17Z" fill="#57AAFF"/>
<path d="M24.5 10H26.5V15H24.5V10Z" fill="#4BA8FF"/>
<path d="M24.5 17H26.5V22H24.5V17Z" fill="#4BA8FF"/>
<path d="M22 19.5H24.5V24H22V19.5Z" fill="#4BA8FF"/>
<path d="M17.5 22H22V25H17.5V22Z" fill="#4BA8FF"/>
<path d="M12.5 26.5H15V28.5H12.5V26.5Z" fill="#0D74D3"/>
<path d="M17.5 30H19.5V31H17.5V30Z" fill="#0D74D3"/>
<path d="M31 22H32V24H31V22Z" fill="#0D74D3"/>
<path d="M31 15H32.5V19.5H31V15Z" fill="#0D74D3"/>
<path d="M29 24H31V28.5H29V24Z" fill="#0D74D3"/>
<path d="M26.5 26.5H29V28.5H26.5V26.5Z" fill="#0D74D3"/>
<path d="M12.5 28.5H17.5V31H12.5V28.5Z" fill="#014E96"/>
<path d="M17.5 31H26.5V33.5H17.5V31Z" fill="#014E96"/>
<path d="M26.5 28.5H31V31H26.5V28.5Z" fill="#014E96"/>
<path d="M31 24H33.5V28.5H31V24Z" fill="#014E96"/>
<path d="M17.5 6H26.5V8H17.5V6Z" fill="#0157A9"/>
<path d="M7.99999 15H10.5V24H7.99999V15Z" fill="#0157A9"/>
<path d="M10.5 24H12.5V28.5H10.5V24Z" fill="#0157A9"/>
<path d="M29 15H31V17H29V15Z" fill="#3198F7"/>
<path d="M33.5 25V24H36V25H35.5V25.5H35V26H34V25H33.5Z" fill="#132E2F"/>
<path d="M17.5 25H22V26.5H17.5V25Z" fill="#6EC310"/>
<path d="M19.5 13H20V14H19.5V13Z" fill="#6EC310"/>
<path d="M20 10H21.5V11H20V10Z" fill="#6EC310"/>
<path d="M20 15V14H20.5V14.5H21V15H20Z" fill="#6EC310"/>
<path d="M15 12.5V10H19V11H18.5V11.5H19V12.5H15Z" fill="#6EC310"/>
<path d="M15 17V12.5H12.5V17H10.5V23.5H12.5V24H15V23H14V22.5H13V21H13.5V20.5H15V21H15.5V21.5H16V19.5H17V17H15Z" fill="#6EC310"/>
<path d="M17.5 28.5V26.5H25V28.5H17.5Z" fill="#57B10F"/>
<path d="M10.5 17V15H12.5V17H10.5Z" fill="#57B10F"/>
<path d="M12.5 12.5V10H15V12.5H12.5Z" fill="#57B10F"/>
<path d="M17.5 10V8H22V9H21.5V10H20V9.5H19V10H17.5Z" fill="#57B10F"/>
<path d="M12.5 24.5V24H15V24.5H16V25.5H16.5V26H17.5V26.5H16V26H15.5V25.5H14V24.5H12.5Z" fill="#58AE01"/>
<path d="M27.5 11.5V10H31V14.5H30.5V12.5H29V11.5H27.5Z" fill="#448001"/>
<path d="M32.5 15H33.5V24H32V22H31V19.5H32.5V15Z" fill="#448001"/>
<path d="M26.5 31V28.5H17.5V30H19.5V31H26.5Z" fill="#448001"/>
<path d="M12.5 10V8H17.5V10H12.5V15H10.5V10H12.5Z" fill="#2A5401"/>
<path d="M26.5 10V8H31V10H33.5V15H36V24H33.5V15H31V10H26.5Z" fill="#2A5401"/>
<path d="M21 31.5V31H25V31.5H24.5V33H24V33.5H22.5V32.5H21.5V31.5H21Z" fill="#2A5401"/>
<path d="M33.5 25V24H32.5V24.5H33V25H33.5Z" fill="#2A5401"/>
<path d="M15 17V12.5H19.5V17H15Z" fill="white"/>
</g>
<g filter="url(#filter0_d_1_56)">
<path d="M44.4027 27H42.4226L46.8718 14.6364H49.027L53.4762 27H51.4961L48.0007 16.8821H47.9041L44.4027 27ZM44.7347 22.1584H51.158V23.728H44.7347V22.1584ZM61.8871 17.7273L58.5246 27H56.5928L53.2242 17.7273H55.162L57.5104 24.8629H57.607L59.9493 17.7273H61.8871ZM66.0164 27.2053C65.4288 27.2053 64.8976 27.0966 64.4227 26.8793C63.9478 26.6579 63.5715 26.3379 63.2938 25.9194C63.0201 25.5008 62.8832 24.9877 62.8832 24.38C62.8832 23.8568 62.9839 23.4261 63.1851 23.0881C63.3863 22.75 63.658 22.4824 64.0001 22.2852C64.3422 22.0879 64.7245 21.939 65.1471 21.8384C65.5697 21.7378 66.0003 21.6613 66.439 21.609C66.9944 21.5446 67.4451 21.4923 67.7913 21.4521C68.1374 21.4078 68.3889 21.3374 68.5459 21.2408C68.7028 21.1442 68.7813 20.9872 68.7813 20.7699V20.7276C68.7813 20.2004 68.6324 19.7919 68.3346 19.5021C68.0408 19.2124 67.6021 19.0675 67.0185 19.0675C66.4108 19.0675 65.9319 19.2023 65.5818 19.4719C65.2356 19.7376 64.9962 20.0334 64.8634 20.3594L63.167 19.973C63.3682 19.4096 63.662 18.9548 64.0484 18.6087C64.4388 18.2585 64.8875 18.005 65.3946 17.848C65.9017 17.687 66.435 17.6065 66.9944 17.6065C67.3647 17.6065 67.7571 17.6508 68.1716 17.7393C68.5902 17.8239 68.9805 17.9808 69.3428 18.2102C69.709 18.4396 70.0088 18.7676 70.2423 19.1942C70.4757 19.6168 70.5924 20.1662 70.5924 20.8423V27H68.8296V25.7322H68.7572C68.6405 25.9657 68.4654 26.1951 68.232 26.4204C67.9985 26.6458 67.6987 26.833 67.3325 26.9819C66.9662 27.1308 66.5275 27.2053 66.0164 27.2053ZM66.4088 25.7564C66.9079 25.7564 67.3345 25.6578 67.6886 25.4606C68.0468 25.2634 68.3185 25.0058 68.5036 24.6879C68.6928 24.3659 68.7874 24.0218 68.7874 23.6555V22.4602C68.723 22.5246 68.5982 22.585 68.4131 22.6413C68.232 22.6937 68.0247 22.7399 67.7913 22.7802C67.5578 22.8164 67.3304 22.8506 67.1091 22.8828C66.8877 22.911 66.7026 22.9351 66.5537 22.9553C66.2036 22.9995 65.8836 23.074 65.5938 23.1786C65.3081 23.2833 65.0787 23.4342 64.9056 23.6314C64.7366 23.8246 64.6521 24.0821 64.6521 24.4041C64.6521 24.8508 64.8171 25.1889 65.1471 25.4183C65.4771 25.6437 65.8977 25.7564 66.4088 25.7564ZM72.9966 27V17.7273H74.8017V27H72.9966ZM73.9082 16.2965C73.5943 16.2965 73.3246 16.1919 73.0992 15.9826C72.8779 15.7693 72.7672 15.5157 72.7672 15.2219C72.7672 14.9241 72.8779 14.6706 73.0992 14.4613C73.3246 14.248 73.5943 14.1413 73.9082 14.1413C74.2221 14.1413 74.4897 14.248 74.7111 14.4613C74.9365 14.6706 75.0492 14.9241 75.0492 15.2219C75.0492 15.5157 74.9365 15.7693 74.7111 15.9826C74.4897 16.1919 74.2221 16.2965 73.9082 16.2965ZM79.035 14.6364V27H77.23V14.6364H79.035ZM84.1619 27.2053C83.5743 27.2053 83.0431 27.0966 82.5682 26.8793C82.0933 26.6579 81.717 26.3379 81.4393 25.9194C81.1656 25.5008 81.0287 24.9877 81.0287 24.38C81.0287 23.8568 81.1294 23.4261 81.3306 23.0881C81.5318 22.75 81.8035 22.4824 82.1456 22.2852C82.4877 22.0879 82.87 21.939 83.2926 21.8384C83.7152 21.7378 84.1458 21.6613 84.5845 21.609C85.1399 21.5446 85.5907 21.4923 85.9368 21.4521C86.2829 21.4078 86.5344 21.3374 86.6914 21.2408C86.8483 21.1442 86.9268 20.9872 86.9268 20.7699V20.7276C86.9268 20.2004 86.7779 19.7919 86.4801 19.5021C86.1863 19.2124 85.7476 19.0675 85.164 19.0675C84.5563 19.0675 84.0774 19.2023 83.7273 19.4719C83.3811 19.7376 83.1417 20.0334 83.0089 20.3594L81.3125 19.973C81.5137 19.4096 81.8075 18.9548 82.1939 18.6087C82.5843 18.2585 83.033 18.005 83.5401 17.848C84.0472 17.687 84.5805 17.6065 85.1399 17.6065C85.5102 17.6065 85.9026 17.6508 86.3171 17.7393C86.7357 17.8239 87.126 17.9808 87.4883 18.2102C87.8545 18.4396 88.1543 18.7676 88.3878 19.1942C88.6212 19.6168 88.7379 20.1662 88.7379 20.8423V27H86.9751V25.7322H86.9027C86.786 25.9657 86.6109 26.1951 86.3775 26.4204C86.144 26.6458 85.8442 26.833 85.478 26.9819C85.1117 27.1308 84.673 27.2053 84.1619 27.2053ZM84.5543 25.7564C85.0534 25.7564 85.48 25.6578 85.8341 25.4606C86.1923 25.2634 86.464 25.0058 86.6491 24.6879C86.8383 24.3659 86.9329 24.0218 86.9329 23.6555V22.4602C86.8685 22.5246 86.7437 22.585 86.5586 22.6413C86.3775 22.6937 86.1702 22.7399 85.9368 22.7802C85.7033 22.8164 85.476 22.8506 85.2546 22.8828C85.0332 22.911 84.8481 22.9351 84.6992 22.9553C84.3491 22.9995 84.0291 23.074 83.7393 23.1786C83.4536 23.2833 83.2242 23.4342 83.0511 23.6314C82.8821 23.8246 82.7976 24.0821 82.7976 24.4041C82.7976 24.8508 82.9626 25.1889 83.2926 25.4183C83.6226 25.6437 84.0432 25.7564 84.5543 25.7564ZM91.287 27V14.6364H93.092V19.2305H93.2007C93.3053 19.0373 93.4563 18.8139 93.6535 18.5604C93.8507 18.3068 94.1244 18.0855 94.4745 17.8963C94.8246 17.7031 95.2875 17.6065 95.863 17.6065C96.6116 17.6065 97.2797 17.7957 97.8673 18.174C98.4548 18.5523 98.9157 19.0977 99.2497 19.81C99.5878 20.5224 99.7568 21.3796 99.7568 22.3817C99.7568 23.3839 99.5898 24.2431 99.2557 24.9595C98.9217 25.6719 98.4629 26.2212 97.8793 26.6076C97.2958 26.9899 96.6297 27.1811 95.8811 27.1811C95.3177 27.1811 94.8568 27.0865 94.4986 26.8974C94.1445 26.7082 93.8668 26.4869 93.6655 26.2333C93.4643 25.9798 93.3094 25.7544 93.2007 25.5572H93.0498V27H91.287ZM93.0558 22.3636C93.0558 23.0156 93.1504 23.5871 93.3396 24.0781C93.5287 24.5691 93.8024 24.9535 94.1606 25.2312C94.5188 25.5048 94.9575 25.6417 95.4766 25.6417C96.0159 25.6417 96.4667 25.4988 96.8289 25.2131C97.1911 24.9233 97.4648 24.5309 97.6499 24.0359C97.8391 23.5408 97.9337 22.9834 97.9337 22.3636C97.9337 21.7519 97.8411 21.2025 97.656 20.7156C97.4749 20.2286 97.2012 19.8442 96.8349 19.5625C96.4727 19.2808 96.02 19.1399 95.4766 19.1399C94.9534 19.1399 94.5107 19.2747 94.1485 19.5444C93.7903 19.814 93.5187 20.1903 93.3335 20.6733C93.1484 21.1562 93.0558 21.7197 93.0558 22.3636ZM103.589 14.6364V27H101.784V14.6364H103.589ZM110.014 27.1871C109.1 27.1871 108.313 26.9919 107.653 26.6016C106.997 26.2071 106.49 25.6538 106.132 24.9414C105.778 24.225 105.601 23.3859 105.601 22.424C105.601 21.4742 105.778 20.6371 106.132 19.9126C106.49 19.1882 106.989 18.6227 107.629 18.2163C108.273 17.8098 109.026 17.6065 109.887 17.6065C110.41 17.6065 110.917 17.6931 111.408 17.8661C111.899 18.0392 112.34 18.3108 112.73 18.6811C113.121 19.0514 113.428 19.5323 113.654 20.1239C113.879 20.7115 113.992 21.4259 113.992 22.267V22.907H106.621V21.5547H112.223C112.223 21.0798 112.126 20.6592 111.933 20.293C111.74 19.9227 111.468 19.6309 111.118 19.4176C110.772 19.2043 110.366 19.0977 109.899 19.0977C109.392 19.0977 108.949 19.2224 108.571 19.4719C108.196 19.7174 107.907 20.0394 107.701 20.4379C107.5 20.8323 107.4 21.2609 107.4 21.7237V22.7802C107.4 23.4 107.508 23.9272 107.726 24.3619C107.947 24.7965 108.255 25.1285 108.649 25.3579C109.044 25.5833 109.504 25.696 110.032 25.696C110.374 25.696 110.686 25.6477 110.967 25.5511C111.249 25.4505 111.493 25.3016 111.698 25.1044C111.903 24.9072 112.06 24.6637 112.169 24.3739L113.877 24.6818C113.74 25.1849 113.495 25.6256 113.141 26.0039C112.791 26.3782 112.35 26.67 111.819 26.8793C111.291 27.0845 110.69 27.1871 110.014 27.1871ZM124.4 27.1871C123.53 27.1871 122.772 26.9879 122.124 26.5895C121.476 26.191 120.973 25.6336 120.614 24.9173C120.256 24.2009 120.077 23.3638 120.077 22.4059C120.077 21.444 120.256 20.6029 120.614 19.8825C120.973 19.162 121.476 18.6026 122.124 18.2042C122.772 17.8058 123.53 17.6065 124.4 17.6065C125.269 17.6065 126.028 17.8058 126.675 18.2042C127.323 18.6026 127.827 19.162 128.185 19.8825C128.543 20.6029 128.722 21.444 128.722 22.4059C128.722 23.3638 128.543 24.2009 128.185 24.9173C127.827 25.6336 127.323 26.191 126.675 26.5895C126.028 26.9879 125.269 27.1871 124.4 27.1871ZM124.406 25.6719C124.969 25.6719 125.436 25.523 125.806 25.2251C126.176 24.9273 126.45 24.5309 126.627 24.0359C126.808 23.5408 126.899 22.9955 126.899 22.3999C126.899 21.8082 126.808 21.2649 126.627 20.7699C126.45 20.2708 126.176 19.8704 125.806 19.5685C125.436 19.2667 124.969 19.1158 124.406 19.1158C123.838 19.1158 123.367 19.2667 122.993 19.5685C122.623 19.8704 122.347 20.2708 122.166 20.7699C121.989 21.2649 121.9 21.8082 121.9 22.3999C121.9 22.9955 121.989 23.5408 122.166 24.0359C122.347 24.5309 122.623 24.9273 122.993 25.2251C123.367 25.523 123.838 25.6719 124.406 25.6719ZM132.542 21.4943V27H130.737V17.7273H132.469V19.2365H132.584C132.797 18.7455 133.131 18.3511 133.586 18.0533C134.045 17.7554 134.623 17.6065 135.319 17.6065C135.951 17.6065 136.504 17.7393 136.979 18.005C137.454 18.2666 137.822 18.657 138.084 19.1761C138.345 19.6953 138.476 20.3372 138.476 21.1019V27H136.671V21.3192C136.671 20.6471 136.496 20.1219 136.146 19.7436C135.796 19.3613 135.315 19.1701 134.703 19.1701C134.285 19.1701 133.912 19.2607 133.586 19.4418C133.264 19.6229 133.009 19.8885 132.82 20.2386C132.634 20.5848 132.542 21.0033 132.542 21.4943Z" fill="#E8E8E8"/>
<path d="M151.619 18.343C151.578 17.9003 151.399 17.5562 151.081 17.3107C150.767 17.0612 150.319 16.9364 149.735 16.9364C149.349 16.9364 149.027 16.9867 148.769 17.0874C148.512 17.188 148.318 17.3268 148.19 17.5039C148.061 17.677 147.994 17.8762 147.99 18.1016C147.982 18.2867 148.019 18.4497 148.099 18.5906C148.184 18.7314 148.304 18.8562 148.461 18.9648C148.622 19.0695 148.815 19.162 149.041 19.2425C149.266 19.323 149.52 19.3935 149.801 19.4538L150.864 19.6953C151.476 19.8281 152.015 20.0052 152.482 20.2266C152.953 20.4479 153.347 20.7115 153.665 21.0174C153.987 21.3233 154.231 21.6754 154.396 22.0739C154.561 22.4723 154.645 22.919 154.649 23.4141C154.645 24.1948 154.448 24.8649 154.057 25.4244C153.667 25.9838 153.106 26.4124 152.373 26.7102C151.645 27.008 150.765 27.157 149.735 27.157C148.701 27.157 147.799 27.002 147.031 26.6921C146.262 26.3822 145.664 25.9113 145.238 25.2795C144.811 24.6476 144.592 23.8487 144.58 22.8828H147.441C147.465 23.2812 147.572 23.6133 147.761 23.8789C147.95 24.1445 148.21 24.3458 148.54 24.4826C148.874 24.6194 149.26 24.6879 149.699 24.6879C150.101 24.6879 150.443 24.6335 150.725 24.5249C151.011 24.4162 151.23 24.2653 151.383 24.0721C151.536 23.8789 151.615 23.6575 151.619 23.408C151.615 23.1746 151.542 22.9754 151.401 22.8104C151.26 22.6413 151.043 22.4964 150.749 22.3757C150.459 22.2509 150.089 22.1362 149.638 22.0316L148.347 21.7298C147.276 21.4843 146.433 21.0878 145.817 20.5405C145.201 19.9891 144.895 19.2446 144.899 18.3068C144.895 17.5421 145.101 16.872 145.515 16.2965C145.93 15.721 146.503 15.2723 147.236 14.9503C147.968 14.6283 148.803 14.4673 149.741 14.4673C150.699 14.4673 151.53 14.6303 152.234 14.9563C152.943 15.2783 153.492 15.7311 153.882 16.3146C154.273 16.8982 154.472 17.5743 154.48 18.343H151.619ZM160.487 27.1751C159.513 27.1751 158.676 26.9758 157.975 26.5774C157.279 26.1749 156.742 25.6155 156.364 24.8991C155.989 24.1787 155.802 23.3436 155.802 22.3938C155.802 21.44 155.989 20.6049 156.364 19.8885C156.742 19.1681 157.279 18.6087 157.975 18.2102C158.676 17.8078 159.513 17.6065 160.487 17.6065C161.461 17.6065 162.296 17.8078 162.992 18.2102C163.692 18.6087 164.23 19.1681 164.604 19.8885C164.982 20.6049 165.171 21.44 165.171 22.3938C165.171 23.3436 164.982 24.1787 164.604 24.8991C164.23 25.6155 163.692 26.1749 162.992 26.5774C162.296 26.9758 161.461 27.1751 160.487 27.1751ZM160.505 24.9474C160.859 24.9474 161.159 24.8388 161.404 24.6214C161.65 24.4041 161.837 24.1023 161.966 23.7159C162.099 23.3295 162.165 22.8828 162.165 22.3757C162.165 21.8606 162.099 21.4098 161.966 21.0234C161.837 20.6371 161.65 20.3352 161.404 20.1179C161.159 19.9006 160.859 19.7919 160.505 19.7919C160.139 19.7919 159.829 19.9006 159.575 20.1179C159.326 20.3352 159.135 20.6371 159.002 21.0234C158.873 21.4098 158.809 21.8606 158.809 22.3757C158.809 22.8828 158.873 23.3295 159.002 23.7159C159.135 24.1023 159.326 24.4041 159.575 24.6214C159.829 24.8388 160.139 24.9474 160.505 24.9474ZM166.684 27V17.7273H169.491V19.4297H169.594C169.787 18.8662 170.113 18.4215 170.572 18.0955C171.03 17.7695 171.578 17.6065 172.214 17.6065C172.858 17.6065 173.409 17.7715 173.868 18.1016C174.326 18.4316 174.618 18.8743 174.743 19.4297H174.84C175.013 18.8783 175.351 18.4376 175.854 18.1076C176.357 17.7736 176.951 17.6065 177.635 17.6065C178.512 17.6065 179.224 17.8883 179.772 18.4517C180.319 19.0111 180.593 19.7798 180.593 20.7578V27H177.641V21.4339C177.641 20.9711 177.522 20.619 177.285 20.3775C177.047 20.132 176.739 20.0092 176.361 20.0092C175.954 20.0092 175.634 20.142 175.401 20.4077C175.172 20.6693 175.057 21.0214 175.057 21.4641V27H172.22V21.4038C172.22 20.9731 172.103 20.633 171.869 20.3835C171.636 20.134 171.328 20.0092 170.946 20.0092C170.688 20.0092 170.461 20.0716 170.264 20.1964C170.066 20.3171 169.911 20.4902 169.799 20.7156C169.69 20.9409 169.636 21.2066 169.636 21.5124V27H166.684ZM186.757 27.1751C185.787 27.1751 184.949 26.9839 184.245 26.6016C183.545 26.2152 183.006 25.6658 182.627 24.9535C182.253 24.2371 182.066 23.3859 182.066 22.3999C182.066 21.442 182.255 20.6049 182.633 19.8885C183.012 19.1681 183.545 18.6087 184.233 18.2102C184.921 17.8078 185.732 17.6065 186.666 17.6065C187.326 17.6065 187.93 17.7092 188.477 17.9144C189.024 18.1197 189.497 18.4235 189.896 18.826C190.294 19.2285 190.604 19.7255 190.825 20.3171C191.047 20.9047 191.157 21.5788 191.157 22.3395V23.076H183.098V21.3615H188.411C188.407 21.0476 188.332 20.7679 188.187 20.5224C188.042 20.2769 187.843 20.0857 187.59 19.9489C187.34 19.808 187.052 19.7376 186.726 19.7376C186.396 19.7376 186.101 19.812 185.839 19.9609C185.577 20.1058 185.37 20.305 185.217 20.5586C185.064 20.8081 184.984 21.0919 184.976 21.4098V23.1545C184.976 23.5328 185.05 23.8648 185.199 24.1506C185.348 24.4323 185.559 24.6516 185.833 24.8086C186.107 24.9655 186.433 25.044 186.811 25.044C187.072 25.044 187.31 25.0078 187.523 24.9354C187.737 24.8629 187.92 24.7563 188.073 24.6154C188.226 24.4745 188.34 24.3015 188.417 24.0962L191.127 24.1747C191.015 24.7824 190.767 25.3117 190.385 25.7624C190.006 26.2092 189.509 26.5573 188.894 26.8068C188.278 27.0523 187.565 27.1751 186.757 27.1751ZM197.899 17.7273V19.9006H192.049V17.7273H197.899ZM193.275 15.5057H196.227V24.0842C196.227 24.2653 196.255 24.4122 196.311 24.5249C196.372 24.6335 196.458 24.712 196.571 24.7603C196.684 24.8046 196.819 24.8267 196.976 24.8267C197.088 24.8267 197.207 24.8166 197.332 24.7965C197.461 24.7724 197.557 24.7522 197.621 24.7361L198.068 26.8672C197.927 26.9074 197.728 26.9577 197.471 27.0181C197.217 27.0785 196.913 27.1167 196.559 27.1328C195.867 27.165 195.273 27.0845 194.778 26.8913C194.287 26.6941 193.911 26.3883 193.649 25.9737C193.392 25.5592 193.267 25.038 193.275 24.4102V15.5057ZM202.557 21.7116V27H199.605V14.6364H202.46V19.4297H202.563C202.772 18.8582 203.114 18.4115 203.589 18.0895C204.068 17.7675 204.654 17.6065 205.346 17.6065C205.998 17.6065 206.565 17.7514 207.048 18.0412C207.531 18.3269 207.905 18.7314 208.171 19.2546C208.441 19.7778 208.573 20.3896 208.569 21.0898V27H205.617V21.6694C205.621 21.1542 205.493 20.7518 205.231 20.462C204.969 20.1722 204.601 20.0273 204.126 20.0273C203.816 20.0273 203.543 20.0958 203.305 20.2326C203.072 20.3654 202.889 20.5566 202.756 20.8061C202.627 21.0556 202.561 21.3575 202.557 21.7116ZM210.412 27V17.7273H213.364V27H210.412ZM211.891 16.6467C211.477 16.6467 211.121 16.5098 210.823 16.2361C210.525 15.9584 210.376 15.6244 210.376 15.234C210.376 14.8477 210.525 14.5176 210.823 14.244C211.121 13.9663 211.477 13.8274 211.891 13.8274C212.31 13.8274 212.666 13.9663 212.96 14.244C213.258 14.5176 213.407 14.8477 213.407 15.234C213.407 15.6244 213.258 15.9584 212.96 16.2361C212.666 16.5098 212.31 16.6467 211.891 16.6467ZM218.195 21.7116V27H215.243V17.7273H218.05V19.4297H218.153C218.358 18.8622 218.708 18.4175 219.204 18.0955C219.699 17.7695 220.288 17.6065 220.972 17.6065C221.624 17.6065 222.19 17.7534 222.669 18.0472C223.152 18.337 223.526 18.7435 223.792 19.2667C224.061 19.7859 224.194 20.3936 224.19 21.0898V27H221.238V21.6694C221.242 21.1542 221.111 20.7518 220.846 20.462C220.584 20.1722 220.22 20.0273 219.753 20.0273C219.443 20.0273 219.169 20.0958 218.932 20.2326C218.698 20.3654 218.517 20.5566 218.389 20.8061C218.264 21.0556 218.199 21.3575 218.195 21.7116ZM230.34 30.6704C229.459 30.6704 228.704 30.5477 228.076 30.3022C227.448 30.0567 226.955 29.7206 226.597 29.294C226.239 28.8674 226.024 28.3845 225.951 27.8452L228.746 27.6882C228.799 27.8774 228.895 28.0424 229.036 28.1832C229.181 28.3241 229.368 28.4328 229.598 28.5092C229.831 28.5857 230.105 28.6239 230.419 28.6239C230.914 28.6239 231.322 28.5032 231.644 28.2617C231.97 28.0243 232.133 27.6077 232.133 27.0121V25.3821H232.03C231.914 25.6678 231.737 25.9234 231.499 26.1488C231.262 26.3742 230.966 26.5512 230.612 26.68C230.262 26.8088 229.859 26.8732 229.404 26.8732C228.728 26.8732 228.108 26.7163 227.545 26.4023C226.986 26.0844 226.537 25.5934 226.199 24.9293C225.865 24.2612 225.698 23.402 225.698 22.3516C225.698 21.2689 225.871 20.3775 226.217 19.6772C226.563 18.9729 227.016 18.4517 227.575 18.1136C228.139 17.7756 228.744 17.6065 229.392 17.6065C229.879 17.6065 230.296 17.691 230.642 17.8601C230.992 18.0251 231.28 18.2384 231.505 18.5C231.731 18.7616 231.902 19.0333 232.018 19.315H232.103V17.7273H235.043V27.0362C235.043 27.821 234.846 28.4831 234.451 29.0224C234.057 29.5617 233.506 29.9702 232.797 30.2479C232.089 30.5296 231.27 30.6704 230.34 30.6704ZM230.431 24.7241C230.789 24.7241 231.095 24.6295 231.348 24.4403C231.602 24.2512 231.797 23.9795 231.934 23.6254C232.071 23.2712 232.139 22.8466 232.139 22.3516C232.139 21.8485 232.071 21.4158 231.934 21.0536C231.801 20.6874 231.606 20.4057 231.348 20.2084C231.095 20.0112 230.789 19.9126 230.431 19.9126C230.064 19.9126 229.755 20.0133 229.501 20.2145C229.247 20.4157 229.054 20.6995 228.921 21.0657C228.793 21.4279 228.728 21.8565 228.728 22.3516C228.728 22.8466 228.795 23.2712 228.928 23.6254C229.06 23.9795 229.251 24.2512 229.501 24.4403C229.755 24.6295 230.064 24.7241 230.431 24.7241ZM244.912 27.1751C243.942 27.1751 243.105 26.9839 242.4 26.6016C241.7 26.2152 241.161 25.6658 240.783 24.9535C240.408 24.2371 240.221 23.3859 240.221 22.3999C240.221 21.442 240.41 20.6049 240.789 19.8885C241.167 19.1681 241.7 18.6087 242.388 18.2102C243.077 17.8078 243.888 17.6065 244.821 17.6065C245.481 17.6065 246.085 17.7092 246.632 17.9144C247.18 18.1197 247.653 18.4235 248.051 18.826C248.449 19.2285 248.759 19.7255 248.981 20.3171C249.202 20.9047 249.313 21.5788 249.313 22.3395V23.076H241.253V21.3615H246.566C246.562 21.0476 246.487 20.7679 246.343 20.5224C246.198 20.2769 245.998 20.0857 245.745 19.9489C245.495 19.808 245.208 19.7376 244.882 19.7376C244.552 19.7376 244.256 19.812 243.994 19.9609C243.733 20.1058 243.525 20.305 243.372 20.5586C243.219 20.8081 243.139 21.0919 243.131 21.4098V23.1545C243.131 23.5328 243.205 23.8648 243.354 24.1506C243.503 24.4323 243.714 24.6516 243.988 24.8086C244.262 24.9655 244.588 25.044 244.966 25.044C245.228 25.044 245.465 25.0078 245.678 24.9354C245.892 24.8629 246.075 24.7563 246.228 24.6154C246.381 24.4745 246.495 24.3015 246.572 24.0962L249.283 24.1747C249.17 24.7824 248.922 25.3117 248.54 25.7624C248.162 26.2092 247.665 26.5573 247.049 26.8068C246.433 27.0523 245.721 27.1751 244.912 27.1751ZM253.772 14.6364V27H250.82V14.6364H253.772ZM263.747 20.5586L261.036 20.631C261.008 20.4379 260.932 20.2668 260.807 20.1179C260.682 19.965 260.519 19.8462 260.318 19.7617C260.121 19.6732 259.891 19.6289 259.63 19.6289C259.288 19.6289 258.996 19.6973 258.754 19.8342C258.517 19.971 258.4 20.1561 258.404 20.3896C258.4 20.5707 258.473 20.7276 258.622 20.8604C258.775 20.9932 259.046 21.0999 259.437 21.1804L261.224 21.5185C262.149 21.6955 262.837 21.9893 263.288 22.3999C263.743 22.8104 263.972 23.3537 263.976 24.0298C263.972 24.6657 263.783 25.2191 263.409 25.69C263.039 26.1609 262.532 26.5271 261.888 26.7887C261.244 27.0463 260.507 27.1751 259.678 27.1751C258.354 27.1751 257.31 26.9034 256.545 26.3601C255.784 25.8127 255.35 25.0803 255.241 24.1626L258.157 24.0902C258.221 24.4283 258.388 24.6858 258.658 24.8629C258.928 25.04 259.272 25.1285 259.69 25.1285C260.069 25.1285 260.376 25.0581 260.614 24.9173C260.851 24.7764 260.972 24.5892 260.976 24.3558C260.972 24.1465 260.879 23.9795 260.698 23.8548C260.517 23.726 260.234 23.6254 259.847 23.5529L258.229 23.245C257.3 23.076 256.607 22.7641 256.153 22.3093C255.698 21.8505 255.472 21.2669 255.476 20.5586C255.472 19.9388 255.637 19.4096 255.971 18.9709C256.305 18.5282 256.78 18.1901 257.396 17.9567C258.012 17.7232 258.738 17.6065 259.575 17.6065C260.831 17.6065 261.821 17.8701 262.546 18.3974C263.27 18.9206 263.671 19.641 263.747 20.5586ZM269.764 27.1751C268.794 27.1751 267.957 26.9839 267.253 26.6016C266.553 26.2152 266.013 25.6658 265.635 24.9535C265.261 24.2371 265.074 23.3859 265.074 22.3999C265.074 21.442 265.263 20.6049 265.641 19.8885C266.019 19.1681 266.553 18.6087 267.241 18.2102C267.929 17.8078 268.74 17.6065 269.674 17.6065C270.334 17.6065 270.937 17.7092 271.485 17.9144C272.032 18.1197 272.505 18.4235 272.904 18.826C273.302 19.2285 273.612 19.7255 273.833 20.3171C274.055 20.9047 274.165 21.5788 274.165 22.3395V23.076H266.106V21.3615H271.418C271.414 21.0476 271.34 20.7679 271.195 20.5224C271.05 20.2769 270.851 20.0857 270.597 19.9489C270.348 19.808 270.06 19.7376 269.734 19.7376C269.404 19.7376 269.108 19.812 268.847 19.9609C268.585 20.1058 268.378 20.305 268.225 20.5586C268.072 20.8081 267.991 21.0919 267.983 21.4098V23.1545C267.983 23.5328 268.058 23.8648 268.207 24.1506C268.356 24.4323 268.567 24.6516 268.841 24.8086C269.114 24.9655 269.44 25.044 269.819 25.044C270.08 25.044 270.318 25.0078 270.531 24.9354C270.744 24.8629 270.927 24.7563 271.08 24.6154C271.233 24.4745 271.348 24.3015 271.424 24.0962L274.135 24.1747C274.022 24.7824 273.775 25.3117 273.393 25.7624C273.014 26.2092 272.517 26.5573 271.901 26.8068C271.286 27.0523 270.573 27.1751 269.764 27.1751Z" fill="#3DA2FF"/>
</g>
<rect x="1.07143" y="1.07143" width="280.857" height="38.8571" rx="6.92857" stroke="white" stroke-opacity="0.15" stroke-width="2.14286"/>
<defs>
<filter id="filter0_d_1_56" x="36.2857" y="4.28571" width="244.428" height="32.4286" filterUnits="userSpaceOnUse" color-interpolation-filters="sRGB">
<feFlood flood-opacity="0" result="BackgroundImageFix"/>
<feColorMatrix in="SourceAlpha" type="matrix" values="0 0 0 0 0 0 0 0 0 0 0 0 0 0 0 0 0 0 127 0" result="hardAlpha"/>
<feOffset/>
<feGaussianBlur stdDeviation="2.85714"/>
<feComposite in2="hardAlpha" operator="out"/>
<feColorMatrix type="matrix" values="0 0 0 0 0 0 0 0 0 0 0 0 0 0 0 0 0 0 0.25 0"/>
<feBlend mode="normal" in2="BackgroundImageFix" result="effect1_dropShadow_1_56"/>
<feBlend mode="normal" in="SourceGraphic" in2="effect1_dropShadow_1_56" result="shape"/>
</filter>
<linearGradient id="paint0_linear_1_56" x1="141.5" y1="0" x2="141.5" y2="41" gradientUnits="userSpaceOnUse">
<stop stop-color="#003778"/>
<stop offset="1" stop-color="#001733"/>
</linearGradient>
<clipPath id="clip0_1_56">
<rect width="28" height="29" fill="white" transform="translate(7.99999 6)"/>
</clipPath>
</defs>
</svg>
