<svg width="56" height="56" viewBox="0 0 56 56" fill="none" xmlns="http://www.w3.org/2000/svg">
<rect x="1.05" y="1.05" width="53.9" height="53.9" rx="7.35" fill="url(#paint0_linear_1_62)"/>
<g clip-path="url(#clip0_1_62)">
<path d="M8 34.2069V32.8276H21.5714V34.2069H45.1428V40.4138H44.4286V41.1034H43.7143V41.7931H41.5714V43.1724H40.8571V43.8621H40.1428V44.5517H39.4286V45.2414H35.1428V46.6207H34.4286V47.3103H33.7143V48H22.2857V47.3103H21.5714V46.6207H20.8571V45.2414H15.8571V44.5517H15.1429V43.8621H14.4286V43.1724H13.7143V41.7931H12.2857V41.1034H11.5714V40.4138H10.8571V35.5862H9.42857V34.8965H8.71428V34.2069H8Z" fill="#012647"/>
<path d="M14.4286 10.7586H40.8571V39.0345H14.4286V10.7586Z" fill="#278EED"/>
<path d="M11.5714 32.1379H14.4286V32.8276H11.5714V32.1379Z" fill="#278EED"/>
<path d="M15.1429 13.5172H34.4286V32.8276H15.1429V13.5172Z" fill="#3DA2FF"/>
<path d="M34.4286 20.4138H38V30.069H34.4286V20.4138Z" fill="#3DA2FF"/>
<path d="M28 32.8276H31.5714V36.2759H28V32.8276Z" fill="#3DA2FF"/>
<path d="M31.5714 32.8276H34.4286V36.2759H31.5714V32.8276Z" fill="#2E95F4"/>
<path d="M34.4286 30.069H38V32.8276H34.4286V30.069Z" fill="#2E95F4"/>
<path d="M20.8571 13.5172H28V23.1724H20.8571V13.5172Z" fill="#57AAFF"/>
<path d="M20.8571 23.1724H24.4286V26.6207H20.8571V23.1724Z" fill="#57AAFF"/>
<path d="M31.5714 13.5172H34.4286V20.4138H31.5714V13.5172Z" fill="#4BA8FF"/>
<path d="M31.5714 23.1724H34.4286V30.069H31.5714V23.1724Z" fill="#4BA8FF"/>
<path d="M28 26.6207H31.5714V32.8276H28V26.6207Z" fill="#4BA8FF"/>
<path d="M21.5714 30.069H28V34.2069H21.5714V30.069Z" fill="#4BA8FF"/>
<path d="M14.4286 36.2759H18V39.0345H14.4286V36.2759Z" fill="#0D74D3"/>
<path d="M21.5714 41.1034H24.4286V42.4828H21.5714V41.1034Z" fill="#0D74D3"/>
<path d="M40.8571 30.069H42.2857V32.8276H40.8571V30.069Z" fill="#0D74D3"/>
<path d="M40.8571 20.4138H43V26.6207H40.8571V20.4138Z" fill="#0D74D3"/>
<path d="M38 32.8276H40.8571V39.0345H38V32.8276Z" fill="#0D74D3"/>
<path d="M34.4286 36.2759H38V39.0345H34.4286V36.2759Z" fill="#0D74D3"/>
<path d="M14.4286 39.0345H21.5714V42.4828H14.4286V39.0345Z" fill="#014E96"/>
<path d="M21.5714 42.4827H34.4286V45.931H21.5714V42.4827Z" fill="#014E96"/>
<path d="M34.4286 39.0345H40.8571V42.4828H34.4286V39.0345Z" fill="#014E96"/>
<path d="M40.8571 32.8276H44.4286V39.0345H40.8571V32.8276Z" fill="#014E96"/>
<path d="M21.5714 8H34.4286V10.7586H21.5714V8Z" fill="#0157A9"/>
<path d="M8 20.4138H11.5714V32.8276H8V20.4138Z" fill="#0157A9"/>
<path d="M11.5714 32.8276H14.4286V39.0345H11.5714V32.8276Z" fill="#0157A9"/>
<path d="M38 20.4138H40.8571V23.1724H38V20.4138Z" fill="#3198F7"/>
<path d="M44.4286 34.2069V32.8276H48V34.2069H47.2857V34.8965H46.5714V35.5862H45.1428V34.2069H44.4286Z" fill="#132E2F"/>
<path d="M21.5714 34.2069H28V36.2759H21.5714V34.2069Z" fill="#6EC310"/>
<path d="M24.4286 17.6552H25.1429V19.0345H24.4286V17.6552Z" fill="#6EC310"/>
<path d="M25.1429 13.5172H27.2857V14.8965H25.1429V13.5172Z" fill="#6EC310"/>
<path d="M25.1429 20.4138V19.0345H25.8571V19.7241H26.5714V20.4138H25.1429Z" fill="#6EC310"/>
<path d="M18 16.9655V13.5172H23.7143V14.8965H23V15.5862H23.7143V16.9655H18Z" fill="#6EC310"/>
<path d="M18 23.1724V16.9655H14.4286V23.1724H11.5714V32.1379H14.4286V32.8276H18V31.4483H16.5714V30.7586H15.1429V28.6897H15.8571V28H18V28.6897H18.7143V29.3793H19.4286V26.6207H20.8571V23.1724H18Z" fill="#6EC310"/>
<path d="M21.5714 39.0345V36.2759H32.2857V39.0345H21.5714Z" fill="#57B10F"/>
<path d="M11.5714 23.1724V20.4138H14.4286V23.1724H11.5714Z" fill="#57B10F"/>
<path d="M14.4286 16.9655V13.5172H18V16.9655H14.4286Z" fill="#57B10F"/>
<path d="M21.5714 13.5172V10.7586H28V12.1379H27.2857V13.5172H25.1429V12.8276H23.7143V13.5172H21.5714Z" fill="#57B10F"/>
<path d="M14.4286 33.5172V32.8276H18V33.5172H19.4286V34.8965H20.1429V35.5862H21.5714V36.2759H19.4286V35.5862H18.7143V34.8965H16.5714V33.5172H14.4286Z" fill="#58AE01"/>
<path d="M35.8571 15.5862V13.5172H40.8571V19.7241H40.1428V16.9655H38V15.5862H35.8571Z" fill="#448001"/>
<path d="M43 20.4138H44.4286V32.8276H42.2857V30.069H40.8571V26.6207H43V20.4138Z" fill="#448001"/>
<path d="M34.4286 42.4828V39.0345H21.5714V41.1034H24.4286V42.4828H34.4286Z" fill="#448001"/>
<path d="M14.4286 13.5172V10.7586H21.5714V13.5172H14.4286V20.4138H11.5714V13.5172H14.4286Z" fill="#2A5401"/>
<path d="M34.4286 13.5172V10.7586H40.8571V13.5172H44.4286V20.4138H48V32.8276H44.4286V20.4138H40.8571V13.5172H34.4286Z" fill="#2A5401"/>
<path d="M26.5714 43.1724V42.4828H32.2857V43.1724H31.5714V45.2414H30.8571V45.931H28.7143V44.5517H27.2857V43.1724H26.5714Z" fill="#2A5401"/>
<path d="M44.4286 34.2069V32.8276H43V33.5172H43.7143V34.2069H44.4286Z" fill="#2A5401"/>
<path d="M18 23.1724V16.9655H24.4286V23.1724H18Z" fill="white"/>
</g>
<rect x="1.05" y="1.05" width="53.9" height="53.9" rx="7.35" stroke="#214A6F" stroke-width="2.1"/>
<defs>
<linearGradient id="paint0_linear_1_62" x1="28" y1="0" x2="28" y2="56" gradientUnits="userSpaceOnUse">
<stop stop-color="#003778"/>
<stop offset="1" stop-color="#001733"/>
</linearGradient>
<clipPath id="clip0_1_62">
<rect width="40" height="40" fill="white" transform="translate(8 8)"/>
</clipPath>
</defs>
</svg>
