<svg width="40" height="40" viewBox="0 0 40 40" fill="none" xmlns="http://www.w3.org/2000/svg">
<rect width="40" height="40" rx="8" fill="url(#paint0_linear_1_68)"/>
<g clip-path="url(#clip0_1_68)">
<path d="M6 24.3448V23.3793H15.5V24.3448H32V28.6897H31.5V29.1724H31V29.6552H29.5V30.6207H29V31.1034H28.5V31.5862H28V32.069H25V33.0345H24.5V33.5172H24V34H16V33.5172H15.5V33.0345H15V32.069H11.5V31.5862H11V31.1034H10.5V30.6207H10V29.6552H9V29.1724H8.5V28.6897H8V25.3103H7V24.8276H6.5V24.3448H6Z" fill="#012647"/>
<path d="M10.5 7.93104H29V27.7241H10.5V7.93104Z" fill="#278EED"/>
<path d="M8.5 22.8966H10.5V23.3793H8.5V22.8966Z" fill="#278EED"/>
<path d="M11 9.86207H24.5V23.3793H11V9.86207Z" fill="#3DA2FF"/>
<path d="M24.5 14.6897H27V21.4483H24.5V14.6897Z" fill="#3DA2FF"/>
<path d="M20 23.3793H22.5V25.7931H20V23.3793Z" fill="#3DA2FF"/>
<path d="M22.5 23.3793H24.5V25.7931H22.5V23.3793Z" fill="#2E95F4"/>
<path d="M24.5 21.4483H27V23.3793H24.5V21.4483Z" fill="#2E95F4"/>
<path d="M15 9.86207H20V16.6207H15V9.86207Z" fill="#57AAFF"/>
<path d="M15 16.6207H17.5V19.0345H15V16.6207Z" fill="#57AAFF"/>
<path d="M22.5 9.86207H24.5V14.6897H22.5V9.86207Z" fill="#4BA8FF"/>
<path d="M22.5 16.6207H24.5V21.4483H22.5V16.6207Z" fill="#4BA8FF"/>
<path d="M20 19.0345H22.5V23.3793H20V19.0345Z" fill="#4BA8FF"/>
<path d="M15.5 21.4483H20V24.3448H15.5V21.4483Z" fill="#4BA8FF"/>
<path d="M10.5 25.7931H13V27.7241H10.5V25.7931Z" fill="#0D74D3"/>
<path d="M15.5 29.1724H17.5V30.1379H15.5V29.1724Z" fill="#0D74D3"/>
<path d="M29 21.4483H30V23.3793H29V21.4483Z" fill="#0D74D3"/>
<path d="M29 14.6897H30.5V19.0345H29V14.6897Z" fill="#0D74D3"/>
<path d="M27 23.3793H29V27.7241H27V23.3793Z" fill="#0D74D3"/>
<path d="M24.5 25.7931H27V27.7241H24.5V25.7931Z" fill="#0D74D3"/>
<path d="M10.5 27.7241H15.5V30.1379H10.5V27.7241Z" fill="#014E96"/>
<path d="M15.5 30.1379H24.5V32.5517H15.5V30.1379Z" fill="#014E96"/>
<path d="M24.5 27.7241H29V30.1379H24.5V27.7241Z" fill="#014E96"/>
<path d="M29 23.3793H31.5V27.7241H29V23.3793Z" fill="#014E96"/>
<path d="M15.5 6H24.5V7.93103H15.5V6Z" fill="#0157A9"/>
<path d="M6 14.6897H8.5V23.3793H6V14.6897Z" fill="#0157A9"/>
<path d="M8.5 23.3793H10.5V27.7241H8.5V23.3793Z" fill="#0157A9"/>
<path d="M27 14.6897H29V16.6207H27V14.6897Z" fill="#3198F7"/>
<path d="M31.5 24.3448V23.3793H34V24.3448H33.5V24.8276H33V25.3103H32V24.3448H31.5Z" fill="#132E2F"/>
<path d="M15.5 24.3448H20V25.7931H15.5V24.3448Z" fill="#6EC310"/>
<path d="M17.5 12.7586H18V13.7241H17.5V12.7586Z" fill="#6EC310"/>
<path d="M18 9.86208H19.5V10.8276H18V9.86208Z" fill="#6EC310"/>
<path d="M18 14.6897V13.7241H18.5V14.2069H19V14.6897H18Z" fill="#6EC310"/>
<path d="M13 12.2759V9.86208H17V10.8276H16.5V11.3104H17V12.2759H13Z" fill="#6EC310"/>
<path d="M13 16.6207V12.2759H10.5V16.6207H8.5V22.8966H10.5V23.3793H13V22.4138H12V21.931H11V20.4828H11.5V20H13V20.4828H13.5V20.9655H14V19.0345H15V16.6207H13Z" fill="#6EC310"/>
<path d="M15.5 27.7241V25.7931H23V27.7241H15.5Z" fill="#57B10F"/>
<path d="M8.5 16.6207V14.6897H10.5V16.6207H8.5Z" fill="#57B10F"/>
<path d="M10.5 12.2759V9.86208H13V12.2759H10.5Z" fill="#57B10F"/>
<path d="M15.5 9.86207V7.93104H20V8.89656H19.5V9.86207H18V9.37931H17V9.86207H15.5Z" fill="#57B10F"/>
<path d="M10.5 23.8621V23.3793H13V23.8621H14V24.8276H14.5V25.3103H15.5V25.7931H14V25.3103H13.5V24.8276H12V23.8621H10.5Z" fill="#58AE01"/>
<path d="M25.5 11.3104V9.86208H29V14.2069H28.5V12.2759H27V11.3104H25.5Z" fill="#448001"/>
<path d="M30.5 14.6897H31.5V23.3793H30V21.4483H29V19.0345H30.5V14.6897Z" fill="#448001"/>
<path d="M24.5 30.1379V27.7241H15.5V29.1724H17.5V30.1379H24.5Z" fill="#448001"/>
<path d="M10.5 9.86207V7.93104H15.5V9.86207H10.5V14.6897H8.5V9.86207H10.5Z" fill="#2A5401"/>
<path d="M24.5 9.86207V7.93104H29V9.86207H31.5V14.6897H34V23.3793H31.5V14.6897H29V9.86207H24.5Z" fill="#2A5401"/>
<path d="M19 30.6207V30.1379H23V30.6207H22.5V32.069H22V32.5517H20.5V31.5862H19.5V30.6207H19Z" fill="#2A5401"/>
<path d="M31.5 24.3448V23.3793H30.5V23.8621H31V24.3448H31.5Z" fill="#2A5401"/>
<path d="M13 16.6207V12.2759H17.5V16.6207H13Z" fill="white"/>
</g>
<rect x="1.05" y="1.05" width="37.9" height="37.9" rx="6.95" stroke="white" stroke-opacity="0.15" stroke-width="2.1"/>
<defs>
<linearGradient id="paint0_linear_1_68" x1="20" y1="0" x2="20" y2="40" gradientUnits="userSpaceOnUse">
<stop stop-color="#102944"/>
<stop offset="1" stop-color="#031121"/>
</linearGradient>
<clipPath id="clip0_1_68">
<rect width="28" height="28" fill="white" transform="translate(6 6)"/>
</clipPath>
</defs>
</svg>
