<svg width="40" height="41" viewBox="0 0 40 41" fill="none" xmlns="http://www.w3.org/2000/svg">
<rect width="40" height="41" rx="8" fill="url(#paint0_linear_1_68)"/>
<g clip-path="url(#clip0_1_68)">
<path d="M6 25V24H15.5V25H32V29.5H31.5V30H31V30.5H29.5V31.5H29V32H28.5V32.5H28V33H25V34H24.5V34.5H24V35H16V34.5H15.5V34H15V33H11.5V32.5H11V32H10.5V31.5H10V30.5H9V30H8.5V29.5H8V26H7V25.5H6.5V25H6Z" fill="#012647"/>
<path d="M10.5 8H29V28.5H10.5V8Z" fill="#278EED"/>
<path d="M8.5 23.5H10.5V24H8.5V23.5Z" fill="#278EED"/>
<path d="M11 10H24.5V24H11V10Z" fill="#3DA2FF"/>
<path d="M24.5 15H27V22H24.5V15Z" fill="#3DA2FF"/>
<path d="M20 24H22.5V26.5H20V24Z" fill="#3DA2FF"/>
<path d="M22.5 24H24.5V26.5H22.5V24Z" fill="#2E95F4"/>
<path d="M24.5 22H27V24H24.5V22Z" fill="#2E95F4"/>
<path d="M15 10H20V17H15V10Z" fill="#57AAFF"/>
<path d="M15 17H17.5V19.5H15V17Z" fill="#57AAFF"/>
<path d="M22.5 10H24.5V15H22.5V10Z" fill="#4BA8FF"/>
<path d="M22.5 17H24.5V22H22.5V17Z" fill="#4BA8FF"/>
<path d="M20 19.5H22.5V24H20V19.5Z" fill="#4BA8FF"/>
<path d="M15.5 22H20V25H15.5V22Z" fill="#4BA8FF"/>
<path d="M10.5 26.5H13V28.5H10.5V26.5Z" fill="#0D74D3"/>
<path d="M15.5 30H17.5V31H15.5V30Z" fill="#0D74D3"/>
<path d="M29 22H30V24H29V22Z" fill="#0D74D3"/>
<path d="M29 15H30.5V19.5H29V15Z" fill="#0D74D3"/>
<path d="M27 24H29V28.5H27V24Z" fill="#0D74D3"/>
<path d="M24.5 26.5H27V28.5H24.5V26.5Z" fill="#0D74D3"/>
<path d="M10.5 28.5H15.5V31H10.5V28.5Z" fill="#014E96"/>
<path d="M15.5 31H24.5V33.5H15.5V31Z" fill="#014E96"/>
<path d="M24.5 28.5H29V31H24.5V28.5Z" fill="#014E96"/>
<path d="M29 24H31.5V28.5H29V24Z" fill="#014E96"/>
<path d="M15.5 6H24.5V8H15.5V6Z" fill="#0157A9"/>
<path d="M6 15H8.5V24H6V15Z" fill="#0157A9"/>
<path d="M8.5 24H10.5V28.5H8.5V24Z" fill="#0157A9"/>
<path d="M27 15H29V17H27V15Z" fill="#3198F7"/>
<path d="M31.5 25V24H34V25H33.5V25.5H33V26H32V25H31.5Z" fill="#132E2F"/>
<path d="M15.5 25H20V26.5H15.5V25Z" fill="#6EC310"/>
<path d="M17.5 13H18V14H17.5V13Z" fill="#6EC310"/>
<path d="M18 10H19.5V11H18V10Z" fill="#6EC310"/>
<path d="M18 15V14H18.5V14.5H19V15H18Z" fill="#6EC310"/>
<path d="M13 12.5V10H17V11H16.5V11.5H17V12.5H13Z" fill="#6EC310"/>
<path d="M13 17V12.5H10.5V17H8.5V23.5H10.5V24H13V23H12V22.5H11V21H11.5V20.5H13V21H13.5V21.5H14V19.5H15V17H13Z" fill="#6EC310"/>
<path d="M15.5 28.5V26.5H23V28.5H15.5Z" fill="#57B10F"/>
<path d="M8.5 17V15H10.5V17H8.5Z" fill="#57B10F"/>
<path d="M10.5 12.5V10H13V12.5H10.5Z" fill="#57B10F"/>
<path d="M15.5 10V8H20V9H19.5V10H18V9.5H17V10H15.5Z" fill="#57B10F"/>
<path d="M10.5 24.5V24H13V24.5H14V25.5H14.5V26H15.5V26.5H14V26H13.5V25.5H12V24.5H10.5Z" fill="#58AE01"/>
<path d="M25.5 11.5V10H29V14.5H28.5V12.5H27V11.5H25.5Z" fill="#448001"/>
<path d="M30.5 15H31.5V24H30V22H29V19.5H30.5V15Z" fill="#448001"/>
<path d="M24.5 31V28.5H15.5V30H17.5V31H24.5Z" fill="#448001"/>
<path d="M10.5 10V8H15.5V10H10.5V15H8.5V10H10.5Z" fill="#2A5401"/>
<path d="M24.5 10V8H29V10H31.5V15H34V24H31.5V15H29V10H24.5Z" fill="#2A5401"/>
<path d="M19 31.5V31H23V31.5H22.5V33H22V33.5H20.5V32.5H19.5V31.5H19Z" fill="#2A5401"/>
<path d="M31.5 25V24H30.5V24.5H31V25H31.5Z" fill="#2A5401"/>
<path d="M13 17V12.5H17.5V17H13Z" fill="white"/>
</g>
<rect x="1.05" y="1.05" width="37.9" height="38.9" rx="6.95" stroke="white" stroke-opacity="0.15" stroke-width="2.1"/>
<defs>
<linearGradient id="paint0_linear_1_68" x1="20" y1="0" x2="20" y2="41" gradientUnits="userSpaceOnUse">
<stop stop-color="#003778"/>
<stop offset="1" stop-color="#001733"/>
</linearGradient>
<clipPath id="clip0_1_68">
<rect width="28" height="29" fill="white" transform="translate(6 6)"/>
</clipPath>
</defs>
</svg>
