<svg width="201" height="56" viewBox="0 0 201 56" fill="none" xmlns="http://www.w3.org/2000/svg">
<rect x="1.05" y="1.05" width="198.9" height="53.9" rx="6.95" fill="url(#paint0_linear_1_50)"/>
<g clip-path="url(#clip0_1_50)">
<path d="M8.50002 33.7414V32.4655H20.7143V33.7414H41.9286V39.4828H41.2857V40.1207H40.6429V40.7586H38.7143V42.0345H38.0714V42.6724H37.4286V43.3103H36.7857V43.9483H32.9286V45.2241H32.2857V45.8621H31.6429V46.5H21.3572V45.8621H20.7143V45.2241H20.0714V43.9483H15.5715V43.3103H14.9286V42.6724H14.2857V42.0345H13.6429V40.7586H12.3572V40.1207H11.7143V39.4828H11.0715V35.0172H9.78574V34.3793H9.14288V33.7414H8.50002Z" fill="#012647"/>
<path d="M14.2857 12.0517H38.0714V38.2069H14.2857V12.0517Z" fill="#278EED"/>
<path d="M11.7143 31.8276H14.2857V32.4655H11.7143V31.8276Z" fill="#278EED"/>
<path d="M14.9286 14.6034H32.2857V32.4655H14.9286V14.6034Z" fill="#3DA2FF"/>
<path d="M32.2857 20.9828H35.5V29.9138H32.2857V20.9828Z" fill="#3DA2FF"/>
<path d="M26.5 32.4655H29.7143V35.6552H26.5V32.4655Z" fill="#3DA2FF"/>
<path d="M29.7143 32.4655H32.2857V35.6552H29.7143V32.4655Z" fill="#2E95F4"/>
<path d="M32.2857 29.9138H35.5V32.4655H32.2857V29.9138Z" fill="#2E95F4"/>
<path d="M20.0714 14.6034H26.5V23.5345H20.0714V14.6034Z" fill="#57AAFF"/>
<path d="M20.0714 23.5345H23.2857V26.7241H20.0714V23.5345Z" fill="#57AAFF"/>
<path d="M29.7143 14.6034H32.2857V20.9828H29.7143V14.6034Z" fill="#4BA8FF"/>
<path d="M29.7143 23.5345H32.2857V29.9138H29.7143V23.5345Z" fill="#4BA8FF"/>
<path d="M26.5 26.7241H29.7143V32.4655H26.5V26.7241Z" fill="#4BA8FF"/>
<path d="M20.7143 29.9138H26.5V33.7414H20.7143V29.9138Z" fill="#4BA8FF"/>
<path d="M14.2857 35.6552H17.5V38.2069H14.2857V35.6552Z" fill="#0D74D3"/>
<path d="M20.7143 40.1207H23.2857V41.3965H20.7143V40.1207Z" fill="#0D74D3"/>
<path d="M38.0714 29.9138H39.3572V32.4655H38.0714V29.9138Z" fill="#0D74D3"/>
<path d="M38.0714 20.9828H40V26.7241H38.0714V20.9828Z" fill="#0D74D3"/>
<path d="M35.5 32.4655H38.0714V38.2069H35.5V32.4655Z" fill="#0D74D3"/>
<path d="M32.2857 35.6552H35.5V38.2069H32.2857V35.6552Z" fill="#0D74D3"/>
<path d="M14.2857 38.2069H20.7143V41.3965H14.2857V38.2069Z" fill="#014E96"/>
<path d="M20.7143 41.3965H32.2857V44.5862H20.7143V41.3965Z" fill="#014E96"/>
<path d="M32.2857 38.2069H38.0715V41.3965H32.2857V38.2069Z" fill="#014E96"/>
<path d="M38.0714 32.4655H41.2857V38.2069H38.0714V32.4655Z" fill="#014E96"/>
<path d="M20.7143 9.5H32.2857V12.0517H20.7143V9.5Z" fill="#0157A9"/>
<path d="M8.50002 20.9828H11.7143V32.4655H8.50002V20.9828Z" fill="#0157A9"/>
<path d="M11.7143 32.4655H14.2857V38.2069H11.7143V32.4655Z" fill="#0157A9"/>
<path d="M35.5 20.9828H38.0714V23.5345H35.5V20.9828Z" fill="#3198F7"/>
<path d="M41.2857 33.7414V32.4655H44.5V33.7414H43.8572V34.3793H43.2143V35.0172H41.9286V33.7414H41.2857Z" fill="#132E2F"/>
<path d="M20.7143 33.7414H26.5V35.6552H20.7143V33.7414Z" fill="#6EC310"/>
<path d="M23.2857 18.431H23.9286V19.7069H23.2857V18.431Z" fill="#6EC310"/>
<path d="M23.9286 14.6034H25.8572V15.8793H23.9286V14.6034Z" fill="#6EC310"/>
<path d="M23.9286 20.9828V19.7069H24.5715V20.3448H25.2143V20.9828H23.9286Z" fill="#6EC310"/>
<path d="M17.5 17.7931V14.6034H22.6429V15.8793H22V16.5172H22.6429V17.7931H17.5Z" fill="#6EC310"/>
<path d="M17.5 23.5345V17.7931H14.2857V23.5345H11.7143V31.8276H14.2857V32.4655H17.5V31.1897H16.2143V30.5517H14.9286V28.6379H15.5715V28H17.5V28.6379H18.1429V29.2759H18.7857V26.7241H20.0715V23.5345H17.5Z" fill="#6EC310"/>
<path d="M20.7143 38.2069V35.6552H30.3572V38.2069H20.7143Z" fill="#57B10F"/>
<path d="M11.7143 23.5345V20.9828H14.2857V23.5345H11.7143Z" fill="#57B10F"/>
<path d="M14.2857 17.7931V14.6034H17.5V17.7931H14.2857Z" fill="#57B10F"/>
<path d="M20.7143 14.6034V12.0517H26.5V13.3276H25.8572V14.6034H23.9286V13.9655H22.6429V14.6034H20.7143Z" fill="#57B10F"/>
<path d="M14.2857 33.1034V32.4655H17.5V33.1034H18.7857V34.3793H19.4286V35.0172H20.7143V35.6552H18.7857V35.0172H18.1429V34.3793H16.2143V33.1034H14.2857Z" fill="#58AE01"/>
<path d="M33.5714 16.5172V14.6034H38.0714V20.3448H37.4286V17.7931H35.5V16.5172H33.5714Z" fill="#448001"/>
<path d="M40 20.9828H41.2857V32.4655H39.3572V29.9138H38.0714V26.7241H40V20.9828Z" fill="#448001"/>
<path d="M32.2857 41.3965V38.2069H20.7143V40.1207H23.2857V41.3965H32.2857Z" fill="#448001"/>
<path d="M14.2857 14.6034V12.0517H20.7143V14.6034H14.2857V20.9828H11.7143V14.6034H14.2857Z" fill="#2A5401"/>
<path d="M32.2857 14.6034V12.0517H38.0714V14.6034H41.2857V20.9828H44.5V32.4655H41.2857V20.9828H38.0714V14.6034H32.2857Z" fill="#2A5401"/>
<path d="M25.2143 42.0345V41.3965H30.3572V42.0345H29.7143V43.9483H29.0715V44.5862H27.1429V43.3103H25.8572V42.0345H25.2143Z" fill="#2A5401"/>
<path d="M41.2857 33.7414V32.4655H40V33.1034H40.6429V33.7414H41.2857Z" fill="#2A5401"/>
<path d="M17.5 23.5345V17.7931H23.2857V23.5345H17.5Z" fill="white"/>
</g>
<g filter="url(#filter0_d_1_50)">
<path d="M54.7614 24.5H52.8977L57.0852 12.8636H59.1136L63.3011 24.5H61.4375L58.1477 14.9773H58.0568L54.7614 24.5ZM55.0739 19.9432H61.1193V21.4205H55.0739V19.9432ZM71.2173 15.7727L68.0526 24.5H66.2344L63.0639 15.7727H64.8878L67.098 22.4886H67.1889L69.3935 15.7727H71.2173ZM75.1037 24.6932C74.5507 24.6932 74.0507 24.5909 73.6037 24.3864C73.1567 24.178 72.8026 23.8769 72.5412 23.483C72.2836 23.089 72.1548 22.6061 72.1548 22.0341C72.1548 21.5417 72.2495 21.1364 72.4389 20.8182C72.6283 20.5 72.884 20.2481 73.206 20.0625C73.5279 19.8769 73.8878 19.7367 74.2855 19.642C74.6832 19.5474 75.0886 19.4754 75.5014 19.4261C76.0242 19.3655 76.4484 19.3163 76.7742 19.2784C77.0999 19.2367 77.3367 19.1705 77.4844 19.0795C77.6321 18.9886 77.706 18.8409 77.706 18.6364V18.5966C77.706 18.1004 77.5658 17.7159 77.2855 17.4432C77.009 17.1705 76.5961 17.0341 76.0469 17.0341C75.4749 17.0341 75.0242 17.161 74.6946 17.4148C74.3689 17.6648 74.1435 17.9432 74.0185 18.25L72.4219 17.8864C72.6113 17.3561 72.8878 16.928 73.2514 16.6023C73.6189 16.2727 74.0412 16.0341 74.5185 15.8864C74.9957 15.7349 75.4976 15.6591 76.0242 15.6591C76.3726 15.6591 76.742 15.7008 77.1321 15.7841C77.526 15.8636 77.8935 16.0114 78.2344 16.2273C78.5791 16.4432 78.8613 16.7519 79.081 17.1534C79.3007 17.5511 79.4105 18.0682 79.4105 18.7045V24.5H77.7514V23.3068H77.6832C77.5734 23.5265 77.4086 23.7424 77.1889 23.9545C76.9692 24.1667 76.687 24.3428 76.3423 24.483C75.9976 24.6231 75.5848 24.6932 75.1037 24.6932ZM75.473 23.3295C75.9427 23.3295 76.3442 23.2367 76.6776 23.0511C77.0147 22.8655 77.2704 22.6231 77.4446 22.3239C77.6226 22.0208 77.7117 21.697 77.7117 21.3523V20.2273C77.651 20.2879 77.5336 20.3447 77.3594 20.3977C77.1889 20.447 76.9939 20.4905 76.7742 20.5284C76.5545 20.5625 76.3404 20.5947 76.1321 20.625C75.9238 20.6515 75.7495 20.6742 75.6094 20.6932C75.2798 20.7349 74.9787 20.8049 74.706 20.9034C74.437 21.0019 74.2211 21.1439 74.0582 21.3295C73.8992 21.5114 73.8196 21.7538 73.8196 22.0568C73.8196 22.4773 73.9749 22.7955 74.2855 23.0114C74.5961 23.2235 74.992 23.3295 75.473 23.3295ZM81.6733 24.5V15.7727H83.3722V24.5H81.6733ZM82.5313 14.4261C82.2358 14.4261 81.982 14.3277 81.7699 14.1307C81.5616 13.9299 81.4574 13.6913 81.4574 13.4148C81.4574 13.1345 81.5616 12.8958 81.7699 12.6989C81.982 12.4981 82.2358 12.3977 82.5313 12.3977C82.8267 12.3977 83.0786 12.4981 83.2869 12.6989C83.4991 12.8958 83.6051 13.1345 83.6051 13.4148C83.6051 13.6913 83.4991 13.9299 83.2869 14.1307C83.0786 14.3277 82.8267 14.4261 82.5313 14.4261ZM87.3565 12.8636V24.5H85.6577V12.8636H87.3565ZM92.1818 24.6932C91.6288 24.6932 91.1288 24.5909 90.6818 24.3864C90.2349 24.178 89.8807 23.8769 89.6193 23.483C89.3617 23.089 89.233 22.6061 89.233 22.0341C89.233 21.5417 89.3277 21.1364 89.517 20.8182C89.7064 20.5 89.9621 20.2481 90.2841 20.0625C90.6061 19.8769 90.9659 19.7367 91.3636 19.642C91.7614 19.5474 92.1667 19.4754 92.5795 19.4261C93.1023 19.3655 93.5265 19.3163 93.8523 19.2784C94.178 19.2367 94.4148 19.1705 94.5625 19.0795C94.7102 18.9886 94.7841 18.8409 94.7841 18.6364V18.5966C94.7841 18.1004 94.6439 17.7159 94.3636 17.4432C94.0871 17.1705 93.6742 17.0341 93.125 17.0341C92.553 17.0341 92.1023 17.161 91.7727 17.4148C91.447 17.6648 91.2216 17.9432 91.0966 18.25L89.5 17.8864C89.6894 17.3561 89.9659 16.928 90.3295 16.6023C90.697 16.2727 91.1193 16.0341 91.5966 15.8864C92.0739 15.7349 92.5758 15.6591 93.1023 15.6591C93.4508 15.6591 93.8201 15.7008 94.2102 15.7841C94.6042 15.8636 94.9716 16.0114 95.3125 16.2273C95.6572 16.4432 95.9394 16.7519 96.1591 17.1534C96.3788 17.5511 96.4886 18.0682 96.4886 18.7045V24.5H94.8295V23.3068H94.7614C94.6515 23.5265 94.4867 23.7424 94.267 23.9545C94.0474 24.1667 93.7652 24.3428 93.4205 24.483C93.0758 24.6231 92.6629 24.6932 92.1818 24.6932ZM92.5511 23.3295C93.0208 23.3295 93.4224 23.2367 93.7557 23.0511C94.0928 22.8655 94.3485 22.6231 94.5227 22.3239C94.7008 22.0208 94.7898 21.697 94.7898 21.3523V20.2273C94.7292 20.2879 94.6117 20.3447 94.4375 20.3977C94.267 20.447 94.072 20.4905 93.8523 20.5284C93.6326 20.5625 93.4186 20.5947 93.2102 20.625C93.0019 20.6515 92.8277 20.6742 92.6875 20.6932C92.358 20.7349 92.0568 20.8049 91.7841 20.9034C91.5152 21.0019 91.2992 21.1439 91.1364 21.3295C90.9773 21.5114 90.8977 21.7538 90.8977 22.0568C90.8977 22.4773 91.053 22.7955 91.3636 23.0114C91.6742 23.2235 92.0701 23.3295 92.5511 23.3295ZM98.8878 24.5V12.8636H100.587V17.1875H100.689C100.787 17.0057 100.929 16.7955 101.115 16.5568C101.301 16.3182 101.558 16.1099 101.888 15.9318C102.217 15.75 102.653 15.6591 103.195 15.6591C103.899 15.6591 104.528 15.8371 105.081 16.1932C105.634 16.5492 106.068 17.0625 106.382 17.733C106.7 18.4034 106.859 19.2102 106.859 20.1534C106.859 21.0966 106.702 21.9053 106.388 22.5795C106.073 23.25 105.642 23.767 105.092 24.1307C104.543 24.4905 103.916 24.6705 103.212 24.6705C102.681 24.6705 102.248 24.5814 101.911 24.4034C101.577 24.2254 101.316 24.017 101.126 23.7784C100.937 23.5398 100.791 23.3277 100.689 23.142H100.547V24.5H98.8878ZM100.553 20.1364C100.553 20.75 100.642 21.2879 100.82 21.75C100.998 22.2121 101.255 22.5739 101.592 22.8352C101.929 23.0928 102.342 23.2216 102.831 23.2216C103.339 23.2216 103.763 23.0871 104.104 22.8182C104.445 22.5455 104.702 22.1761 104.876 21.7102C105.054 21.2443 105.143 20.7197 105.143 20.1364C105.143 19.5606 105.056 19.0436 104.882 18.5852C104.712 18.1269 104.454 17.7652 104.109 17.5C103.768 17.2349 103.342 17.1023 102.831 17.1023C102.339 17.1023 101.922 17.2292 101.581 17.483C101.244 17.7367 100.988 18.0909 100.814 18.5455C100.64 19 100.553 19.5303 100.553 20.1364ZM110.466 12.8636V24.5H108.767V12.8636H110.466ZM116.513 24.6761C115.653 24.6761 114.912 24.4924 114.291 24.125C113.674 23.7538 113.196 23.233 112.859 22.5625C112.526 21.8883 112.359 21.0985 112.359 20.1932C112.359 19.2992 112.526 18.5114 112.859 17.8295C113.196 17.1477 113.666 16.6155 114.268 16.233C114.875 15.8504 115.583 15.6591 116.393 15.6591C116.886 15.6591 117.363 15.7405 117.825 15.9034C118.287 16.0663 118.702 16.322 119.07 16.6705C119.437 17.0189 119.727 17.4716 119.939 18.0284C120.151 18.5814 120.257 19.2538 120.257 20.0455V20.6477H113.32V19.375H118.592C118.592 18.928 118.501 18.5322 118.32 18.1875C118.138 17.839 117.882 17.5644 117.553 17.3636C117.227 17.1629 116.844 17.0625 116.405 17.0625C115.928 17.0625 115.511 17.1799 115.155 17.4148C114.803 17.6458 114.53 17.9489 114.337 18.3239C114.147 18.6951 114.053 19.0985 114.053 19.5341V20.5284C114.053 21.1117 114.155 21.608 114.359 22.017C114.568 22.4261 114.857 22.7386 115.229 22.9545C115.6 23.1667 116.034 23.2727 116.53 23.2727C116.852 23.2727 117.145 23.2273 117.411 23.1364C117.676 23.0417 117.905 22.9015 118.098 22.7159C118.291 22.5303 118.439 22.3011 118.541 22.0284L120.149 22.3182C120.02 22.7917 119.789 23.2064 119.456 23.5625C119.126 23.9148 118.712 24.1894 118.212 24.3864C117.715 24.5795 117.149 24.6761 116.513 24.6761ZM130.053 24.6761C129.234 24.6761 128.52 24.4886 127.911 24.1136C127.301 23.7386 126.827 23.214 126.49 22.5398C126.153 21.8655 125.984 21.0777 125.984 20.1761C125.984 19.2708 126.153 18.4792 126.49 17.8011C126.827 17.1231 127.301 16.5966 127.911 16.2216C128.52 15.8466 129.234 15.6591 130.053 15.6591C130.871 15.6591 131.585 15.8466 132.195 16.2216C132.804 16.5966 133.278 17.1231 133.615 17.8011C133.952 18.4792 134.121 19.2708 134.121 20.1761C134.121 21.0777 133.952 21.8655 133.615 22.5398C133.278 23.214 132.804 23.7386 132.195 24.1136C131.585 24.4886 130.871 24.6761 130.053 24.6761ZM130.058 23.25C130.589 23.25 131.028 23.1099 131.376 22.8295C131.725 22.5492 131.982 22.1761 132.149 21.7102C132.32 21.2443 132.405 20.7311 132.405 20.1705C132.405 19.6136 132.32 19.1023 132.149 18.6364C131.982 18.1667 131.725 17.7898 131.376 17.5057C131.028 17.2216 130.589 17.0795 130.058 17.0795C129.524 17.0795 129.081 17.2216 128.729 17.5057C128.38 17.7898 128.121 18.1667 127.95 18.6364C127.784 19.1023 127.7 19.6136 127.7 20.1705C127.7 20.7311 127.784 21.2443 127.95 21.7102C128.121 22.1761 128.38 22.5492 128.729 22.8295C129.081 23.1099 129.524 23.25 130.058 23.25ZM137.716 19.3182V24.5H136.017V15.7727H137.648V17.1932H137.756C137.956 16.7311 138.271 16.3599 138.699 16.0795C139.131 15.7992 139.674 15.6591 140.33 15.6591C140.924 15.6591 141.445 15.7841 141.892 16.0341C142.339 16.2803 142.686 16.6477 142.932 17.1364C143.178 17.625 143.301 18.2292 143.301 18.9489V24.5H141.602V19.1534C141.602 18.5208 141.437 18.0265 141.108 17.6705C140.778 17.3106 140.326 17.1307 139.75 17.1307C139.356 17.1307 139.006 17.2159 138.699 17.3864C138.396 17.5568 138.155 17.8068 137.977 18.1364C137.803 18.4621 137.716 18.8561 137.716 19.3182Z" fill="white"/>
<path d="M53.4357 43.5V31.1364H58.543C59.4686 31.1364 60.2675 31.3175 60.9396 31.6797C61.6158 32.0379 62.137 32.5389 62.5032 33.1829C62.8694 33.8228 63.0526 34.5674 63.0526 35.4165C63.0526 36.2698 62.8654 37.0163 62.4911 37.6562C62.1209 38.2921 61.5916 38.7852 60.9034 39.1353C60.2152 39.4854 59.3982 39.6605 58.4524 39.6605H55.3012V37.3061H57.897C58.3478 37.3061 58.7241 37.2276 59.0259 37.0707C59.3318 36.9137 59.5632 36.6944 59.7202 36.4126C59.8771 36.1269 59.9556 35.7949 59.9556 35.4165C59.9556 35.0342 59.8771 34.7042 59.7202 34.4265C59.5632 34.1448 59.3318 33.9274 59.0259 33.7745C58.7201 33.6216 58.3438 33.5451 57.897 33.5451H56.424V43.5H53.4357ZM67.4776 31.1364V43.5H64.5256V31.1364H67.4776ZM71.9706 43.657C71.379 43.657 70.8538 43.5584 70.395 43.3611C69.9402 43.1599 69.58 42.8581 69.3144 42.4556C69.0528 42.0491 68.922 41.54 68.922 40.9283C68.922 40.4131 69.0125 39.9785 69.1936 39.6243C69.3747 39.2701 69.6243 38.9824 69.9422 38.761C70.2602 38.5397 70.6264 38.3726 71.0409 38.2599C71.4555 38.1432 71.8982 38.0647 72.3691 38.0245C72.8963 37.9762 73.3209 37.9259 73.6429 37.8736C73.9648 37.8172 74.1983 37.7388 74.3431 37.6381C74.492 37.5335 74.5665 37.3866 74.5665 37.1974V37.1673C74.5665 36.8574 74.4599 36.6179 74.2465 36.4489C74.0332 36.2798 73.7455 36.1953 73.3833 36.1953C72.9929 36.1953 72.679 36.2798 72.4415 36.4489C72.2041 36.6179 72.0531 36.8513 71.9887 37.1491L69.2661 37.0526C69.3466 36.4891 69.5538 35.986 69.8879 35.5433C70.226 35.0966 70.6888 34.7464 71.2764 34.4929C71.868 34.2353 72.5783 34.1065 73.4074 34.1065C73.999 34.1065 74.5444 34.177 75.0434 34.3178C75.5425 34.4547 75.9771 34.6559 76.3474 34.9215C76.7177 35.1831 77.0034 35.5051 77.2046 35.8874C77.4099 36.2698 77.5125 36.7064 77.5125 37.1974V43.5H74.7355V42.2081H74.6631C74.4981 42.522 74.2868 42.7876 74.0292 43.005C73.7757 43.2223 73.4758 43.3853 73.1297 43.494C72.7876 43.6026 72.4013 43.657 71.9706 43.657ZM72.8822 41.7251C73.2001 41.7251 73.4859 41.6607 73.7394 41.532C73.997 41.4032 74.2023 41.2261 74.3552 41.0007C74.5081 40.7713 74.5846 40.5057 74.5846 40.2038V39.3224C74.5001 39.3667 74.3975 39.407 74.2767 39.4432C74.16 39.4794 74.0312 39.5136 73.8904 39.5458C73.7495 39.578 73.6046 39.6062 73.4557 39.6303C73.3068 39.6545 73.1639 39.6766 73.0271 39.6967C72.7494 39.741 72.5119 39.8094 72.3147 39.902C72.1215 39.9946 71.9726 40.1153 71.868 40.2642C71.7674 40.4091 71.7171 40.5821 71.7171 40.7834C71.7171 41.0892 71.8257 41.3227 72.0431 41.4837C72.2644 41.6446 72.5441 41.7251 72.8822 41.7251ZM82.2696 38.2116V43.5H79.3176V34.2273H82.1247V35.9297H82.2274C82.4326 35.3622 82.7828 34.9175 83.2778 34.5955C83.7728 34.2695 84.3624 34.1065 85.0466 34.1065C85.6986 34.1065 86.2641 34.2534 86.743 34.5472C87.2259 34.837 87.6002 35.2435 87.8659 35.7667C88.1355 36.2859 88.2683 36.8936 88.2643 37.5898V43.5H85.3122V38.1694C85.3163 37.6542 85.1855 37.2518 84.9198 36.962C84.6582 36.6722 84.294 36.5273 83.8272 36.5273C83.5173 36.5273 83.2436 36.5958 83.0061 36.7326C82.7727 36.8654 82.5916 37.0566 82.4628 37.3061C82.338 37.5556 82.2737 37.8575 82.2696 38.2116ZM94.4265 43.6751C93.4566 43.6751 92.6194 43.4839 91.9151 43.1016C91.2148 42.7152 90.6755 42.1658 90.2972 41.4535C89.9229 40.7371 89.7358 39.8859 89.7358 38.8999C89.7358 37.942 89.925 37.1049 90.3033 36.3885C90.6816 35.6681 91.2148 35.1087 91.9031 34.7102C92.5913 34.3078 93.4022 34.1065 94.3359 34.1065C94.996 34.1065 95.5997 34.2092 96.147 34.4144C96.6944 34.6197 97.1673 34.9235 97.5657 35.326C97.9641 35.7285 98.274 36.2255 98.4954 36.8171C98.7167 37.4047 98.8274 38.0788 98.8274 38.8395V39.576H90.7681V37.8615H96.0806C96.0766 37.5476 96.0021 37.2679 95.8572 37.0224C95.7124 36.7769 95.5131 36.5857 95.2596 36.4489C95.0101 36.308 94.7223 36.2376 94.3963 36.2376C94.0663 36.2376 93.7705 36.312 93.5089 36.4609C93.2473 36.6058 93.04 36.805 92.8871 37.0586C92.7341 37.3081 92.6536 37.5919 92.6456 37.9098V39.6545C92.6456 40.0328 92.7201 40.3648 92.869 40.6506C93.0179 40.9323 93.2292 41.1516 93.5028 41.3086C93.7765 41.4656 94.1025 41.544 94.4808 41.544C94.7424 41.544 94.9799 41.5078 95.1932 41.4354C95.4065 41.3629 95.5896 41.2563 95.7425 41.1154C95.8955 40.9745 96.0102 40.8015 96.0867 40.5962L98.7972 40.6747C98.6845 41.2824 98.437 41.8117 98.0547 42.2624C97.6764 42.7092 97.1793 43.0573 96.5636 43.3068C95.9478 43.5523 95.2354 43.6751 94.4265 43.6751ZM105.569 34.2273V36.4006H99.7194V34.2273H105.569ZM100.945 32.0057H103.897V40.5842C103.897 40.7653 103.925 40.9122 103.981 41.0249C104.042 41.1335 104.128 41.212 104.241 41.2603C104.354 41.3046 104.489 41.3267 104.646 41.3267C104.758 41.3267 104.877 41.3166 105.002 41.2965C105.13 41.2724 105.227 41.2522 105.291 41.2361L105.738 43.3672C105.597 43.4074 105.398 43.4577 105.141 43.5181C104.887 43.5785 104.583 43.6167 104.229 43.6328C103.537 43.665 102.943 43.5845 102.448 43.3913C101.957 43.1941 101.581 42.8883 101.319 42.4737C101.062 42.0592 100.937 41.538 100.945 40.9102V32.0057ZM110.728 31.1364H114.428L117.568 38.7912H117.712L120.852 31.1364H124.552V43.5H121.642V35.9055H121.54L118.57 43.4215H116.71L113.74 35.8633H113.638V43.5H110.728V31.1364ZM126.416 43.5V34.2273H129.368V43.5H126.416ZM127.895 33.1467C127.481 33.1467 127.125 33.0098 126.827 32.7361C126.529 32.4584 126.38 32.1244 126.38 31.734C126.38 31.3477 126.529 31.0176 126.827 30.744C127.125 30.4663 127.481 30.3274 127.895 30.3274C128.314 30.3274 128.67 30.4663 128.964 30.744C129.262 31.0176 129.411 31.3477 129.411 31.734C129.411 32.1244 129.262 32.4584 128.964 32.7361C128.67 33.0098 128.314 33.1467 127.895 33.1467ZM134.199 38.2116V43.5H131.247V34.2273H134.054V35.9297H134.157C134.362 35.3622 134.712 34.9175 135.207 34.5955C135.702 34.2695 136.292 34.1065 136.976 34.1065C137.628 34.1065 138.194 34.2534 138.673 34.5472C139.156 34.837 139.53 35.2435 139.796 35.7667C140.065 36.2859 140.198 36.8936 140.194 37.5898V43.5H137.242V38.1694C137.246 37.6542 137.115 37.2518 136.85 36.962C136.588 36.6722 136.224 36.5273 135.757 36.5273C135.447 36.5273 135.173 36.5958 134.936 36.7326C134.702 36.8654 134.521 37.0566 134.392 37.3061C134.268 37.5556 134.203 37.8575 134.199 38.2116ZM146.356 43.6751C145.386 43.6751 144.549 43.4839 143.845 43.1016C143.145 42.7152 142.605 42.1658 142.227 41.4535C141.853 40.7371 141.665 39.8859 141.665 38.8999C141.665 37.942 141.855 37.1049 142.233 36.3885C142.611 35.6681 143.145 35.1087 143.833 34.7102C144.521 34.3078 145.332 34.1065 146.266 34.1065C146.926 34.1065 147.529 34.2092 148.077 34.4144C148.624 34.6197 149.097 34.9235 149.495 35.326C149.894 35.7285 150.204 36.2255 150.425 36.8171C150.646 37.4047 150.757 38.0788 150.757 38.8395V39.576H142.698V37.8615H148.01C148.006 37.5476 147.932 37.2679 147.787 37.0224C147.642 36.7769 147.443 36.5857 147.189 36.4489C146.94 36.308 146.652 36.2376 146.326 36.2376C145.996 36.2376 145.7 36.312 145.439 36.4609C145.177 36.6058 144.97 36.805 144.817 37.0586C144.664 37.3081 144.583 37.5919 144.575 37.9098V39.6545C144.575 40.0328 144.65 40.3648 144.799 40.6506C144.948 40.9323 145.159 41.1516 145.433 41.3086C145.706 41.4656 146.032 41.544 146.41 41.544C146.672 41.544 146.91 41.5078 147.123 41.4354C147.336 41.3629 147.519 41.2563 147.672 41.1154C147.825 40.9745 147.94 40.8015 148.016 40.5962L150.727 40.6747C150.614 41.2824 150.367 41.8117 149.984 42.2624C149.606 42.7092 149.109 43.0573 148.493 43.3068C147.877 43.5523 147.165 43.6751 146.356 43.6751ZM156.593 43.6751C155.615 43.6751 154.776 43.4738 154.076 43.0714C153.38 42.6689 152.844 42.1095 152.47 41.3931C152.096 40.6727 151.909 39.8396 151.909 38.8938C151.909 37.944 152.096 37.1109 152.47 36.3945C152.848 35.6741 153.386 35.1127 154.082 34.7102C154.782 34.3078 155.617 34.1065 156.587 34.1065C157.444 34.1065 158.191 34.2615 158.827 34.5714C159.467 34.8813 159.966 35.32 160.324 35.8874C160.686 36.4509 160.877 37.1129 160.898 37.8736H158.139C158.082 37.3987 157.921 37.0264 157.656 36.7567C157.394 36.4871 157.052 36.3523 156.63 36.3523C156.287 36.3523 155.988 36.4489 155.73 36.642C155.472 36.8312 155.271 37.1129 155.126 37.4872C154.985 37.8575 154.915 38.3163 154.915 38.8636C154.915 39.411 154.985 39.8738 155.126 40.2521C155.271 40.6264 155.472 40.9102 155.73 41.1033C155.988 41.2925 156.287 41.3871 156.63 41.3871C156.903 41.3871 157.145 41.3287 157.354 41.212C157.567 41.0953 157.742 40.9242 157.879 40.6989C158.016 40.4695 158.103 40.1918 158.139 39.8658H160.898C160.869 40.6304 160.678 41.2985 160.324 41.87C159.974 42.4415 159.481 42.8862 158.845 43.2042C158.213 43.5181 157.463 43.6751 156.593 43.6751ZM162.408 43.5V34.2273H165.276V35.9176H165.372C165.542 35.3059 165.817 34.8511 166.2 34.5533C166.582 34.2514 167.027 34.1005 167.534 34.1005C167.671 34.1005 167.811 34.1106 167.956 34.1307C168.101 34.1468 168.236 34.1729 168.361 34.2092V36.7749C168.22 36.7266 168.035 36.6883 167.805 36.6602C167.58 36.632 167.379 36.6179 167.202 36.6179C166.852 36.6179 166.536 36.6964 166.254 36.8533C165.976 37.0063 165.757 37.2216 165.596 37.4993C165.439 37.773 165.36 38.0949 165.36 38.4652V43.5H162.408ZM171.829 43.657C171.237 43.657 170.712 43.5584 170.253 43.3611C169.799 43.1599 169.438 42.8581 169.173 42.4556C168.911 42.0491 168.78 41.54 168.78 40.9283C168.78 40.4131 168.871 39.9785 169.052 39.6243C169.233 39.2701 169.483 38.9824 169.801 38.761C170.119 38.5397 170.485 38.3726 170.899 38.2599C171.314 38.1432 171.757 38.0647 172.227 38.0245C172.755 37.9762 173.179 37.9259 173.501 37.8736C173.823 37.8172 174.057 37.7388 174.202 37.6381C174.35 37.5335 174.425 37.3866 174.425 37.1974V37.1673C174.425 36.8574 174.318 36.6179 174.105 36.4489C173.892 36.2798 173.604 36.1953 173.242 36.1953C172.851 36.1953 172.537 36.2798 172.3 36.4489C172.062 36.6179 171.911 36.8513 171.847 37.1491L169.124 37.0526C169.205 36.4891 169.412 35.986 169.746 35.5433C170.084 35.0966 170.547 34.7464 171.135 34.4929C171.726 34.2353 172.437 34.1065 173.266 34.1065C173.857 34.1065 174.403 34.177 174.902 34.3178C175.401 34.4547 175.836 34.6559 176.206 34.9215C176.576 35.1831 176.862 35.5051 177.063 35.8874C177.268 36.2698 177.371 36.7064 177.371 37.1974V43.5H174.594V42.2081H174.521C174.356 42.522 174.145 42.7876 173.888 43.005C173.634 43.2223 173.334 43.3853 172.988 43.494C172.646 43.6026 172.26 43.657 171.829 43.657ZM172.741 41.7251C173.059 41.7251 173.344 41.6607 173.598 41.532C173.855 41.4032 174.061 41.2261 174.214 41.0007C174.367 40.7713 174.443 40.5057 174.443 40.2038V39.3224C174.358 39.3667 174.256 39.407 174.135 39.4432C174.018 39.4794 173.89 39.5136 173.749 39.5458C173.608 39.578 173.463 39.6062 173.314 39.6303C173.165 39.6545 173.022 39.6766 172.885 39.6967C172.608 39.741 172.37 39.8094 172.173 39.902C171.98 39.9946 171.831 40.1153 171.726 40.2642C171.626 40.4091 171.575 40.5821 171.575 40.7834C171.575 41.0892 171.684 41.3227 171.901 41.4837C172.123 41.6446 172.403 41.7251 172.741 41.7251ZM184.446 34.2273V36.4006H178.482V34.2273L184.446 34.2273ZM179.725 43.5V33.7564C179.725 33.04 179.86 32.4464 180.13 31.9755C180.399 31.5006 180.774 31.1464 181.253 30.913C181.732 30.6755 182.285 30.5568 182.913 30.5568C183.323 30.5568 183.71 30.589 184.072 30.6534C184.438 30.7138 184.71 30.7681 184.887 30.8164L184.416 32.9776C184.307 32.9414 184.175 32.9112 184.018 32.8871C183.865 32.8629 183.72 32.8509 183.583 32.8509C183.237 32.8509 182.999 32.9273 182.871 33.0803C182.742 33.2332 182.677 33.4425 182.677 33.7081V43.5H179.725ZM191.1 34.2273V36.4006H185.251V34.2273H191.1ZM186.476 32.0057H189.428V40.5842C189.428 40.7653 189.456 40.9122 189.513 41.0249C189.573 41.1335 189.66 41.212 189.772 41.2603C189.885 41.3046 190.02 41.3267 190.177 41.3267C190.289 41.3267 190.408 41.3166 190.533 41.2965C190.662 41.2724 190.758 41.2522 190.823 41.2361L191.269 43.3672C191.129 43.4074 190.929 43.4577 190.672 43.5181C190.418 43.5785 190.114 43.6167 189.76 43.6328C189.068 43.665 188.474 43.5845 187.979 43.3913C187.488 43.1941 187.112 42.8883 186.85 42.4737C186.593 42.0592 186.468 41.538 186.476 40.9102V32.0057Z" fill="#3DA2FF"/>
</g>
<rect x="1.05" y="1.05" width="198.9" height="53.9" rx="6.95" stroke="#214A6F" stroke-width="2.1"/>
<defs>
<filter id="filter0_d_1_50" x="46.9" y="3.90001" width="151.2" height="48.2" filterUnits="userSpaceOnUse" color-interpolation-filters="sRGB">
<feFlood flood-opacity="0" result="BackgroundImageFix"/>
<feColorMatrix in="SourceAlpha" type="matrix" values="0 0 0 0 0 0 0 0 0 0 0 0 0 0 0 0 0 0 127 0" result="hardAlpha"/>
<feOffset/>
<feGaussianBlur stdDeviation="2.8"/>
<feComposite in2="hardAlpha" operator="out"/>
<feColorMatrix type="matrix" values="0 0 0 0 0 0 0 0 0 0 0 0 0 0 0 0 0 0 0.25 0"/>
<feBlend mode="normal" in2="BackgroundImageFix" result="effect1_dropShadow_1_50"/>
<feBlend mode="normal" in="SourceGraphic" in2="effect1_dropShadow_1_50" result="shape"/>
</filter>
<linearGradient id="paint0_linear_1_50" x1="100.5" y1="0" x2="100.5" y2="56" gradientUnits="userSpaceOnUse">
<stop stop-color="#003778"/>
<stop offset="1" stop-color="#001733"/>
</linearGradient>
<clipPath id="clip0_1_50">
<rect width="36" height="37" fill="white" transform="translate(8.50002 9.5)"/>
</clipPath>
</defs>
</svg>
