<svg width="212" height="56" viewBox="0 0 212 56" fill="none" xmlns="http://www.w3.org/2000/svg">
<rect width="212" height="56" rx="8" fill="url(#paint0_linear_1_50)"/>
<g clip-path="url(#clip0_1_50)">
<path d="M12 34.2069V32.8276H25.5714V34.2069H49.1428V40.4138H48.4286V41.1034H47.7143V41.7931H45.5714V43.1724H44.8571V43.8621H44.1428V44.5517H43.4286V45.2414H39.1429V46.6207H38.4286V47.3103H37.7143V48H26.2857V47.3103H25.5714V46.6207H24.8571V45.2414H19.8571V44.5517H19.1429V43.8621H18.4286V43.1724H17.7143V41.7931H16.2857V41.1034H15.5714V40.4138H14.8571V35.5862H13.4286V34.8965H12.7143V34.2069H12Z" fill="#012647"/>
<path d="M18.4286 10.7586H44.8571V39.0345H18.4286V10.7586Z" fill="#278EED"/>
<path d="M15.5714 32.1379H18.4286V32.8276H15.5714V32.1379Z" fill="#278EED"/>
<path d="M19.1429 13.5172H38.4286V32.8276H19.1429V13.5172Z" fill="#3DA2FF"/>
<path d="M38.4286 20.4138H42V30.069H38.4286V20.4138Z" fill="#3DA2FF"/>
<path d="M32 32.8276H35.5714V36.2759H32V32.8276Z" fill="#3DA2FF"/>
<path d="M35.5714 32.8276H38.4286V36.2759H35.5714V32.8276Z" fill="#2E95F4"/>
<path d="M38.4286 30.069H42V32.8276H38.4286V30.069Z" fill="#2E95F4"/>
<path d="M24.8571 13.5172H32V23.1724H24.8571V13.5172Z" fill="#57AAFF"/>
<path d="M24.8571 23.1724H28.4286V26.6207H24.8571V23.1724Z" fill="#57AAFF"/>
<path d="M35.5714 13.5172H38.4286V20.4138H35.5714V13.5172Z" fill="#4BA8FF"/>
<path d="M35.5714 23.1724H38.4286V30.069H35.5714V23.1724Z" fill="#4BA8FF"/>
<path d="M32 26.6207H35.5714V32.8276H32V26.6207Z" fill="#4BA8FF"/>
<path d="M25.5714 30.069H32V34.2069H25.5714V30.069Z" fill="#4BA8FF"/>
<path d="M18.4286 36.2759H22V39.0345H18.4286V36.2759Z" fill="#0D74D3"/>
<path d="M25.5714 41.1034H28.4286V42.4828H25.5714V41.1034Z" fill="#0D74D3"/>
<path d="M44.8571 30.069H46.2857V32.8276H44.8571V30.069Z" fill="#0D74D3"/>
<path d="M44.8571 20.4138H47V26.6207H44.8571V20.4138Z" fill="#0D74D3"/>
<path d="M42 32.8276H44.8571V39.0345H42V32.8276Z" fill="#0D74D3"/>
<path d="M38.4286 36.2759H42V39.0345H38.4286V36.2759Z" fill="#0D74D3"/>
<path d="M18.4286 39.0345H25.5714V42.4828H18.4286V39.0345Z" fill="#014E96"/>
<path d="M25.5714 42.4827H38.4286V45.931H25.5714V42.4827Z" fill="#014E96"/>
<path d="M38.4286 39.0345H44.8571V42.4828H38.4286V39.0345Z" fill="#014E96"/>
<path d="M44.8571 32.8276H48.4286V39.0345H44.8571V32.8276Z" fill="#014E96"/>
<path d="M25.5714 8H38.4286V10.7586H25.5714V8Z" fill="#0157A9"/>
<path d="M12 20.4138H15.5714V32.8276H12V20.4138Z" fill="#0157A9"/>
<path d="M15.5714 32.8276H18.4286V39.0345H15.5714V32.8276Z" fill="#0157A9"/>
<path d="M42 20.4138H44.8571V23.1724H42V20.4138Z" fill="#3198F7"/>
<path d="M48.4286 34.2069V32.8276H52V34.2069H51.2857V34.8965H50.5714V35.5862H49.1429V34.2069H48.4286Z" fill="#132E2F"/>
<path d="M25.5714 34.2069H32V36.2759H25.5714V34.2069Z" fill="#6EC310"/>
<path d="M28.4286 17.6552H29.1429V19.0345H28.4286V17.6552Z" fill="#6EC310"/>
<path d="M29.1429 13.5172H31.2857V14.8965H29.1429V13.5172Z" fill="#6EC310"/>
<path d="M29.1429 20.4138V19.0345H29.8571V19.7241H30.5714V20.4138H29.1429Z" fill="#6EC310"/>
<path d="M22 16.9655V13.5172H27.7143V14.8965H27V15.5862H27.7143V16.9655H22Z" fill="#6EC310"/>
<path d="M22 23.1724V16.9655H18.4286V23.1724H15.5714V32.1379H18.4286V32.8276H22V31.4483H20.5714V30.7586H19.1429V28.6897H19.8571V28H22V28.6897H22.7143V29.3793H23.4286V26.6207H24.8571V23.1724H22Z" fill="#6EC310"/>
<path d="M25.5714 39.0345V36.2759H36.2857V39.0345H25.5714Z" fill="#57B10F"/>
<path d="M15.5714 23.1724V20.4138H18.4286V23.1724H15.5714Z" fill="#57B10F"/>
<path d="M18.4286 16.9655V13.5172H22V16.9655H18.4286Z" fill="#57B10F"/>
<path d="M25.5714 13.5172V10.7586H32V12.1379H31.2857V13.5172H29.1429V12.8276H27.7143V13.5172H25.5714Z" fill="#57B10F"/>
<path d="M18.4286 33.5172V32.8276H22V33.5172H23.4286V34.8965H24.1429V35.5862H25.5714V36.2759H23.4286V35.5862H22.7143V34.8965H20.5714V33.5172H18.4286Z" fill="#58AE01"/>
<path d="M39.8571 15.5862V13.5172H44.8571V19.7241H44.1429V16.9655H42V15.5862H39.8571Z" fill="#448001"/>
<path d="M47 20.4138H48.4286V32.8276H46.2857V30.069H44.8571V26.6207H47V20.4138Z" fill="#448001"/>
<path d="M38.4286 42.4828V39.0345H25.5714V41.1034H28.4286V42.4828H38.4286Z" fill="#448001"/>
<path d="M18.4286 13.5172V10.7586H25.5714V13.5172H18.4286V20.4138H15.5714V13.5172H18.4286Z" fill="#2A5401"/>
<path d="M38.4286 13.5172V10.7586H44.8571V13.5172H48.4286V20.4138H52V32.8276H48.4286V20.4138H44.8571V13.5172H38.4286Z" fill="#2A5401"/>
<path d="M30.5714 43.1724V42.4828H36.2857V43.1724H35.5714V45.2414H34.8571V45.931H32.7143V44.5517H31.2857V43.1724H30.5714Z" fill="#2A5401"/>
<path d="M48.4286 34.2069V32.8276H47V33.5172H47.7143V34.2069H48.4286Z" fill="#2A5401"/>
<path d="M22 23.1724V16.9655H28.4286V23.1724H22Z" fill="white"/>
</g>
<g filter="url(#filter0_d_1_50)">
<path d="M62.2614 24.5H60.3977L64.5852 12.8636H66.6136L70.8011 24.5H68.9375L65.6477 14.9773H65.5568L62.2614 24.5ZM62.5739 19.9432H68.6193V21.4205H62.5739V19.9432ZM78.7173 15.7727L75.5525 24.5H73.7344L70.5639 15.7727H72.3878L74.598 22.4886H74.6889L76.8935 15.7727H78.7173ZM82.6037 24.6932C82.0506 24.6932 81.5506 24.5909 81.1037 24.3864C80.6567 24.178 80.3025 23.8769 80.0412 23.483C79.7836 23.089 79.6548 22.6061 79.6548 22.0341C79.6548 21.5417 79.7495 21.1364 79.9389 20.8182C80.1283 20.5 80.384 20.2481 80.706 20.0625C81.0279 19.8769 81.3878 19.7367 81.7855 19.642C82.1832 19.5473 82.5885 19.4754 83.0014 19.4261C83.5241 19.3655 83.9484 19.3163 84.2741 19.2784C84.5999 19.2367 84.8366 19.1705 84.9844 19.0795C85.1321 18.9886 85.206 18.8409 85.206 18.6364V18.5966C85.206 18.1004 85.0658 17.7159 84.7855 17.4432C84.509 17.1705 84.0961 17.0341 83.5469 17.0341C82.9749 17.0341 82.5241 17.161 82.1946 17.4148C81.8688 17.6648 81.6435 17.9432 81.5185 18.25L79.9219 17.8864C80.1113 17.3561 80.3878 16.928 80.7514 16.6023C81.1188 16.2727 81.5412 16.0341 82.0185 15.8864C82.4957 15.7348 82.9976 15.6591 83.5241 15.6591C83.8726 15.6591 84.2419 15.7008 84.6321 15.7841C85.026 15.8636 85.3935 16.0114 85.7344 16.2273C86.0791 16.4432 86.3613 16.7519 86.581 17.1534C86.8006 17.5511 86.9105 18.0682 86.9105 18.7045V24.5H85.2514V23.3068H85.1832C85.0734 23.5265 84.9086 23.7424 84.6889 23.9545C84.4692 24.1667 84.187 24.3428 83.8423 24.483C83.4976 24.6231 83.0847 24.6932 82.6037 24.6932ZM82.973 23.3295C83.4427 23.3295 83.8442 23.2367 84.1775 23.0511C84.5147 22.8655 84.7703 22.6231 84.9446 22.3239C85.1226 22.0208 85.2116 21.697 85.2116 21.3523V20.2273C85.151 20.2879 85.0336 20.3447 84.8594 20.3977C84.6889 20.447 84.4938 20.4905 84.2741 20.5284C84.0544 20.5625 83.8404 20.5947 83.6321 20.625C83.4238 20.6515 83.2495 20.6742 83.1094 20.6932C82.7798 20.7348 82.4787 20.8049 82.206 20.9034C81.937 21.0019 81.7211 21.1439 81.5582 21.3295C81.3991 21.5114 81.3196 21.7538 81.3196 22.0568C81.3196 22.4773 81.4749 22.7955 81.7855 23.0114C82.0961 23.2235 82.4919 23.3295 82.973 23.3295ZM89.1733 24.5V15.7727H90.8721V24.5H89.1733ZM90.0312 14.4261C89.7358 14.4261 89.482 14.3277 89.2699 14.1307C89.0615 13.9299 88.9574 13.6913 88.9574 13.4148C88.9574 13.1345 89.0615 12.8958 89.2699 12.6989C89.482 12.4981 89.7358 12.3977 90.0312 12.3977C90.3267 12.3977 90.5786 12.4981 90.7869 12.6989C90.999 12.8958 91.1051 13.1345 91.1051 13.4148C91.1051 13.6913 90.999 13.9299 90.7869 14.1307C90.5786 14.3277 90.3267 14.4261 90.0312 14.4261ZM94.8565 12.8636V24.5H93.1577V12.8636H94.8565ZM99.6818 24.6932C99.1288 24.6932 98.6288 24.5909 98.1818 24.3864C97.7348 24.178 97.3807 23.8769 97.1193 23.483C96.8617 23.089 96.7329 22.6061 96.7329 22.0341C96.7329 21.5417 96.8276 21.1364 97.017 20.8182C97.2064 20.5 97.4621 20.2481 97.7841 20.0625C98.106 19.8769 98.4659 19.7367 98.8636 19.642C99.2613 19.5473 99.6666 19.4754 100.08 19.4261C100.602 19.3655 101.026 19.3163 101.352 19.2784C101.678 19.2367 101.915 19.1705 102.062 19.0795C102.21 18.9886 102.284 18.8409 102.284 18.6364V18.5966C102.284 18.1004 102.144 17.7159 101.864 17.4432C101.587 17.1705 101.174 17.0341 100.625 17.0341C100.053 17.0341 99.6023 17.161 99.2727 17.4148C98.947 17.6648 98.7216 17.9432 98.5966 18.25L97 17.8864C97.1894 17.3561 97.4659 16.928 97.8295 16.6023C98.197 16.2727 98.6193 16.0341 99.0966 15.8864C99.5738 15.7348 100.076 15.6591 100.602 15.6591C100.951 15.6591 101.32 15.7008 101.71 15.7841C102.104 15.8636 102.472 16.0114 102.812 16.2273C103.157 16.4432 103.439 16.7519 103.659 17.1534C103.879 17.5511 103.989 18.0682 103.989 18.7045V24.5H102.33V23.3068H102.261C102.151 23.5265 101.987 23.7424 101.767 23.9545C101.547 24.1667 101.265 24.3428 100.92 24.483C100.576 24.6231 100.163 24.6932 99.6818 24.6932ZM100.051 23.3295C100.521 23.3295 100.922 23.2367 101.256 23.0511C101.593 22.8655 101.848 22.6231 102.023 22.3239C102.201 22.0208 102.29 21.697 102.29 21.3523V20.2273C102.229 20.2879 102.112 20.3447 101.937 20.3977C101.767 20.447 101.572 20.4905 101.352 20.5284C101.133 20.5625 100.919 20.5947 100.71 20.625C100.502 20.6515 100.328 20.6742 100.187 20.6932C99.8579 20.7348 99.5568 20.8049 99.2841 20.9034C99.0151 21.0019 98.7992 21.1439 98.6363 21.3295C98.4773 21.5114 98.3977 21.7538 98.3977 22.0568C98.3977 22.4773 98.553 22.7955 98.8636 23.0114C99.1742 23.2235 99.5701 23.3295 100.051 23.3295ZM106.388 24.5V12.8636H108.087V17.1875H108.189C108.287 17.0057 108.429 16.7955 108.615 16.5568C108.801 16.3182 109.058 16.1098 109.388 15.9318C109.717 15.75 110.153 15.6591 110.695 15.6591C111.399 15.6591 112.028 15.8371 112.581 16.1932C113.134 16.5492 113.568 17.0625 113.882 17.733C114.2 18.4034 114.359 19.2102 114.359 20.1534C114.359 21.0966 114.202 21.9053 113.888 22.5795C113.573 23.25 113.142 23.767 112.592 24.1307C112.043 24.4905 111.416 24.6705 110.712 24.6705C110.181 24.6705 109.748 24.5814 109.41 24.4034C109.077 24.2254 108.816 24.017 108.626 23.7784C108.437 23.5398 108.291 23.3277 108.189 23.142H108.047V24.5H106.388ZM108.053 20.1364C108.053 20.75 108.142 21.2879 108.32 21.75C108.498 22.2121 108.755 22.5739 109.092 22.8352C109.429 23.0928 109.842 23.2216 110.331 23.2216C110.839 23.2216 111.263 23.0871 111.604 22.8182C111.945 22.5455 112.202 22.1761 112.376 21.7102C112.554 21.2443 112.643 20.7197 112.643 20.1364C112.643 19.5606 112.556 19.0436 112.382 18.5852C112.212 18.1269 111.954 17.7652 111.609 17.5C111.268 17.2348 110.842 17.1023 110.331 17.1023C109.839 17.1023 109.422 17.2292 109.081 17.483C108.744 17.7367 108.488 18.0909 108.314 18.5455C108.14 19 108.053 19.5303 108.053 20.1364ZM117.966 12.8636V24.5H116.267V12.8636H117.966ZM124.013 24.6761C123.153 24.6761 122.412 24.4924 121.791 24.125C121.174 23.7538 120.696 23.233 120.359 22.5625C120.026 21.8883 119.859 21.0985 119.859 20.1932C119.859 19.2992 120.026 18.5114 120.359 17.8295C120.696 17.1477 121.166 16.6155 121.768 16.233C122.375 15.8504 123.083 15.6591 123.893 15.6591C124.386 15.6591 124.863 15.7405 125.325 15.9034C125.787 16.0663 126.202 16.322 126.57 16.6705C126.937 17.0189 127.227 17.4716 127.439 18.0284C127.651 18.5814 127.757 19.2538 127.757 20.0455V20.6477H120.82V19.375H126.092C126.092 18.928 126.001 18.5322 125.82 18.1875C125.638 17.839 125.382 17.5644 125.053 17.3636C124.727 17.1629 124.344 17.0625 123.905 17.0625C123.428 17.0625 123.011 17.1799 122.655 17.4148C122.303 17.6458 122.03 17.9489 121.837 18.3239C121.647 18.6951 121.553 19.0985 121.553 19.5341V20.5284C121.553 21.1117 121.655 21.608 121.859 22.017C122.068 22.4261 122.357 22.7386 122.729 22.9545C123.1 23.1667 123.534 23.2727 124.03 23.2727C124.352 23.2727 124.645 23.2273 124.91 23.1364C125.176 23.0417 125.405 22.9015 125.598 22.7159C125.791 22.5303 125.939 22.3011 126.041 22.0284L127.649 22.3182C127.52 22.7917 127.289 23.2064 126.956 23.5625C126.626 23.9148 126.212 24.1894 125.712 24.3864C125.215 24.5795 124.649 24.6761 124.013 24.6761ZM137.553 24.6761C136.734 24.6761 136.02 24.4886 135.41 24.1136C134.801 23.7386 134.327 23.214 133.99 22.5398C133.653 21.8655 133.484 21.0777 133.484 20.1761C133.484 19.2708 133.653 18.4792 133.99 17.8011C134.327 17.1231 134.801 16.5966 135.41 16.2216C136.02 15.8466 136.734 15.6591 137.553 15.6591C138.371 15.6591 139.085 15.8466 139.695 16.2216C140.304 16.5966 140.778 17.1231 141.115 17.8011C141.452 18.4792 141.621 19.2708 141.621 20.1761C141.621 21.0777 141.452 21.8655 141.115 22.5398C140.778 23.214 140.304 23.7386 139.695 24.1136C139.085 24.4886 138.371 24.6761 137.553 24.6761ZM137.558 23.25C138.089 23.25 138.528 23.1098 138.876 22.8295C139.225 22.5492 139.482 22.1761 139.649 21.7102C139.82 21.2443 139.905 20.7311 139.905 20.1705C139.905 19.6136 139.82 19.1023 139.649 18.6364C139.482 18.1667 139.225 17.7898 138.876 17.5057C138.528 17.2216 138.089 17.0795 137.558 17.0795C137.024 17.0795 136.581 17.2216 136.229 17.5057C135.88 17.7898 135.621 18.1667 135.45 18.6364C135.284 19.1023 135.2 19.6136 135.2 20.1705C135.2 20.7311 135.284 21.2443 135.45 21.7102C135.621 22.1761 135.88 22.5492 136.229 22.8295C136.581 23.1098 137.024 23.25 137.558 23.25ZM145.216 19.3182V24.5H143.517V15.7727H145.148V17.1932H145.256C145.456 16.7311 145.771 16.3598 146.199 16.0795C146.631 15.7992 147.174 15.6591 147.83 15.6591C148.424 15.6591 148.945 15.7841 149.392 16.0341C149.839 16.2803 150.186 16.6477 150.432 17.1364C150.678 17.625 150.801 18.2292 150.801 18.9489V24.5H149.102V19.1534C149.102 18.5208 148.937 18.0265 148.608 17.6705C148.278 17.3106 147.826 17.1307 147.25 17.1307C146.856 17.1307 146.506 17.2159 146.199 17.3864C145.896 17.5568 145.655 17.8068 145.477 18.1364C145.303 18.4621 145.216 18.8561 145.216 19.3182Z" fill="#E8E8E8"/>
<path d="M60.9357 43.5V31.1364H66.043C66.9686 31.1364 67.7675 31.3175 68.4396 31.6797C69.1158 32.0379 69.6369 32.5389 70.0032 33.1829C70.3694 33.8228 70.5525 34.5673 70.5525 35.4165C70.5525 36.2698 70.3654 37.0163 69.9911 37.6562C69.6208 38.2921 69.0916 38.7852 68.4034 39.1353C67.7152 39.4854 66.8982 39.6605 65.9524 39.6605H62.8011V37.3061H65.397C65.8478 37.3061 66.2241 37.2276 66.5259 37.0707C66.8318 36.9137 67.0632 36.6944 67.2202 36.4126C67.3771 36.1269 67.4556 35.7949 67.4556 35.4165C67.4556 35.0342 67.3771 34.7042 67.2202 34.4265C67.0632 34.1448 66.8318 33.9274 66.5259 33.7745C66.22 33.6216 65.8437 33.5451 65.397 33.5451H63.924V43.5H60.9357ZM74.9776 31.1364V43.5H72.0256V31.1364H74.9776ZM79.4706 43.657C78.879 43.657 78.3538 43.5584 77.895 43.3611C77.4402 43.1599 77.08 42.8581 76.8144 42.4556C76.5528 42.0491 76.422 41.54 76.422 40.9283C76.422 40.4131 76.5125 39.9785 76.6936 39.6243C76.8747 39.2701 77.1242 38.9824 77.4422 38.761C77.7601 38.5396 78.1264 38.3726 78.5409 38.2599C78.9554 38.1432 79.3982 38.0647 79.869 38.0245C80.3963 37.9762 80.8209 37.9259 81.1428 37.8736C81.4648 37.8172 81.6982 37.7388 81.8431 37.6381C81.992 37.5335 82.0665 37.3866 82.0665 37.1974V37.1673C82.0665 36.8574 81.9598 36.6179 81.7465 36.4489C81.5332 36.2798 81.2455 36.1953 80.8832 36.1953C80.4929 36.1953 80.1789 36.2798 79.9415 36.4489C79.704 36.6179 79.5531 36.8513 79.4887 37.1491L76.7661 37.0526C76.8465 36.4891 77.0538 35.986 77.3879 35.5433C77.7259 35.0966 78.1888 34.7464 78.7764 34.4929C79.368 34.2353 80.0783 34.1065 80.9074 34.1065C81.499 34.1065 82.0443 34.177 82.5434 34.3178C83.0425 34.4547 83.4771 34.6559 83.8474 34.9215C84.2176 35.1831 84.5034 35.5051 84.7046 35.8874C84.9099 36.2698 85.0125 36.7064 85.0125 37.1974V43.5H82.2355V42.2081H82.1631C81.9981 42.522 81.7868 42.7876 81.5292 43.005C81.2756 43.2223 80.9758 43.3853 80.6297 43.494C80.2876 43.6026 79.9012 43.657 79.4706 43.657ZM80.3822 41.7251C80.7001 41.7251 80.9859 41.6607 81.2394 41.532C81.497 41.4032 81.7023 41.2261 81.8552 41.0007C82.0081 40.7713 82.0846 40.5057 82.0846 40.2038V39.3224C82.0001 39.3667 81.8974 39.407 81.7767 39.4432C81.66 39.4794 81.5312 39.5136 81.3903 39.5458C81.2495 39.578 81.1046 39.6062 80.9557 39.6303C80.8068 39.6545 80.6639 39.6766 80.5271 39.6967C80.2494 39.741 80.0119 39.8094 79.8147 39.902C79.6215 39.9945 79.4726 40.1153 79.368 40.2642C79.2674 40.4091 79.217 40.5821 79.217 40.7834C79.217 41.0892 79.3257 41.3227 79.543 41.4837C79.7644 41.6446 80.0441 41.7251 80.3822 41.7251ZM89.7696 38.2116V43.5H86.8175V34.2273H89.6247V35.9297H89.7273C89.9326 35.3622 90.2827 34.9175 90.7778 34.5955C91.2728 34.2695 91.8624 34.1065 92.5466 34.1065C93.1986 34.1065 93.764 34.2534 94.243 34.5472C94.7259 34.837 95.1002 35.2435 95.3658 35.7667C95.6355 36.2859 95.7683 36.8936 95.7643 37.5898V43.5H92.8122V38.1694C92.8162 37.6542 92.6854 37.2518 92.4198 36.962C92.1582 36.6722 91.794 36.5273 91.3271 36.5273C91.0172 36.5273 90.7436 36.5958 90.5061 36.7326C90.2727 36.8654 90.0916 37.0566 89.9628 37.3061C89.838 37.5556 89.7736 37.8575 89.7696 38.2116ZM101.926 43.6751C100.957 43.6751 100.119 43.4839 99.4151 43.1016C98.7148 42.7152 98.1755 42.1658 97.7972 41.4535C97.4229 40.7371 97.2358 39.8859 97.2358 38.8999C97.2358 37.942 97.4249 37.1049 97.8032 36.3885C98.1816 35.6681 98.7148 35.1087 99.403 34.7102C100.091 34.3078 100.902 34.1065 101.836 34.1065C102.496 34.1065 103.1 34.2092 103.647 34.4144C104.194 34.6197 104.667 34.9235 105.066 35.326C105.464 35.7285 105.774 36.2255 105.995 36.8171C106.217 37.4047 106.327 38.0788 106.327 38.8395V39.576H98.2681V37.8615H103.581C103.577 37.5476 103.502 37.2679 103.357 37.0224C103.212 36.7769 103.013 36.5857 102.76 36.4489C102.51 36.308 102.222 36.2376 101.896 36.2376C101.566 36.2376 101.27 36.312 101.009 36.4609C100.747 36.6058 100.54 36.805 100.387 37.0586C100.234 37.3081 100.154 37.5919 100.146 37.9098V39.6545C100.146 40.0328 100.22 40.3648 100.369 40.6506C100.518 40.9323 100.729 41.1516 101.003 41.3086C101.276 41.4655 101.602 41.544 101.981 41.544C102.242 41.544 102.48 41.5078 102.693 41.4354C102.906 41.3629 103.09 41.2563 103.243 41.1154C103.395 40.9745 103.51 40.8015 103.587 40.5962L106.297 40.6747C106.185 41.2824 105.937 41.8117 105.555 42.2624C105.176 42.7092 104.679 43.0573 104.064 43.3068C103.448 43.5523 102.735 43.6751 101.926 43.6751ZM113.069 34.2273V36.4006H107.219V34.2273H113.069ZM108.445 32.0057H111.397V40.5842C111.397 40.7653 111.425 40.9122 111.481 41.0249C111.542 41.1335 111.628 41.212 111.741 41.2603C111.854 41.3046 111.989 41.3267 112.145 41.3267C112.258 41.3267 112.377 41.3166 112.502 41.2965C112.63 41.2724 112.727 41.2522 112.791 41.2361L113.238 43.3672C113.097 43.4074 112.898 43.4577 112.641 43.5181C112.387 43.5785 112.083 43.6167 111.729 43.6328C111.037 43.665 110.443 43.5845 109.948 43.3913C109.457 43.1941 109.081 42.8883 108.819 42.4737C108.562 42.0592 108.437 41.538 108.445 40.9102V32.0057ZM118.228 31.1364H121.928L125.068 38.7912H125.212L128.352 31.1364H132.052V43.5H129.142V35.9055H129.04L126.07 43.4215H124.21L121.24 35.8633H121.137V43.5H118.228V31.1364ZM133.916 43.5V34.2273H136.868V43.5H133.916ZM135.395 33.1467C134.981 33.1467 134.624 33.0098 134.327 32.7361C134.029 32.4584 133.88 32.1244 133.88 31.734C133.88 31.3477 134.029 31.0176 134.327 30.744C134.624 30.4663 134.981 30.3274 135.395 30.3274C135.814 30.3274 136.17 30.4663 136.464 30.744C136.762 31.0176 136.91 31.3477 136.91 31.734C136.91 32.1244 136.762 32.4584 136.464 32.7361C136.17 33.0098 135.814 33.1467 135.395 33.1467ZM141.699 38.2116V43.5H138.747V34.2273H141.554V35.9297H141.657C141.862 35.3622 142.212 34.9175 142.707 34.5955C143.202 34.2695 143.792 34.1065 144.476 34.1065C145.128 34.1065 145.694 34.2534 146.173 34.5472C146.656 34.837 147.03 35.2435 147.296 35.7667C147.565 36.2859 147.698 36.8936 147.694 37.5898V43.5H144.742V38.1694C144.746 37.6542 144.615 37.2518 144.349 36.962C144.088 36.6722 143.724 36.5273 143.257 36.5273C142.947 36.5273 142.673 36.5958 142.436 36.7326C142.202 36.8654 142.021 37.0566 141.892 37.3061C141.768 37.5556 141.703 37.8575 141.699 38.2116ZM153.856 43.6751C152.886 43.6751 152.049 43.4839 151.345 43.1016C150.644 42.7152 150.105 42.1658 149.727 41.4535C149.353 40.7371 149.165 39.8859 149.165 38.8999C149.165 37.942 149.355 37.1049 149.733 36.3885C150.111 35.6681 150.644 35.1087 151.333 34.7102C152.021 34.3078 152.832 34.1065 153.766 34.1065C154.426 34.1065 155.029 34.2092 155.577 34.4144C156.124 34.6197 156.597 34.9235 156.995 35.326C157.394 35.7285 157.704 36.2255 157.925 36.8171C158.146 37.4047 158.257 38.0788 158.257 38.8395V39.576H150.198V37.8615H155.51C155.506 37.5476 155.432 37.2679 155.287 37.0224C155.142 36.7769 154.943 36.5857 154.689 36.4489C154.44 36.308 154.152 36.2376 153.826 36.2376C153.496 36.2376 153.2 36.312 152.939 36.4609C152.677 36.6058 152.47 36.805 152.317 37.0586C152.164 37.3081 152.083 37.5919 152.075 37.9098V39.6545C152.075 40.0328 152.15 40.3648 152.299 40.6506C152.448 40.9323 152.659 41.1516 152.932 41.3086C153.206 41.4655 153.532 41.544 153.91 41.544C154.172 41.544 154.41 41.5078 154.623 41.4354C154.836 41.3629 155.019 41.2563 155.172 41.1154C155.325 40.9745 155.44 40.8015 155.516 40.5962L158.227 40.6747C158.114 41.2824 157.867 41.8117 157.484 42.2624C157.106 42.7092 156.609 43.0573 155.993 43.3068C155.377 43.5523 154.665 43.6751 153.856 43.6751ZM164.093 43.6751C163.115 43.6751 162.276 43.4738 161.576 43.0714C160.88 42.6689 160.344 42.1095 159.97 41.3931C159.596 40.6727 159.409 39.8396 159.409 38.8938C159.409 37.944 159.596 37.1109 159.97 36.3945C160.348 35.6741 160.886 35.1127 161.582 34.7102C162.282 34.3078 163.117 34.1065 164.087 34.1065C164.944 34.1065 165.691 34.2615 166.327 34.5714C166.967 34.8813 167.466 35.32 167.824 35.8874C168.186 36.4509 168.377 37.1129 168.398 37.8736H165.639C165.582 37.3987 165.421 37.0264 165.156 36.7567C164.894 36.4871 164.552 36.3523 164.129 36.3523C163.787 36.3523 163.488 36.4489 163.23 36.642C162.972 36.8312 162.771 37.1129 162.626 37.4872C162.485 37.8575 162.415 38.3163 162.415 38.8636C162.415 39.411 162.485 39.8738 162.626 40.2521C162.771 40.6264 162.972 40.9102 163.23 41.1033C163.488 41.2925 163.787 41.3871 164.129 41.3871C164.403 41.3871 164.645 41.3287 164.854 41.212C165.067 41.0953 165.242 40.9242 165.379 40.6989C165.516 40.4695 165.602 40.1918 165.639 39.8658H168.398C168.369 40.6304 168.178 41.2985 167.824 41.87C167.474 42.4415 166.981 42.8862 166.345 43.2042C165.713 43.5181 164.963 43.6751 164.093 43.6751ZM169.908 43.5V34.2273H172.776V35.9176H172.872C173.042 35.3059 173.317 34.8511 173.7 34.5533C174.082 34.2514 174.527 34.1005 175.034 34.1005C175.171 34.1005 175.311 34.1106 175.456 34.1307C175.601 34.1468 175.736 34.1729 175.861 34.2092V36.7749C175.72 36.7266 175.535 36.6883 175.305 36.6602C175.08 36.632 174.879 36.6179 174.702 36.6179C174.352 36.6179 174.036 36.6964 173.754 36.8533C173.476 37.0063 173.257 37.2216 173.096 37.4993C172.939 37.773 172.86 38.0949 172.86 38.4652V43.5H169.908ZM179.329 43.657C178.737 43.657 178.212 43.5584 177.753 43.3611C177.299 43.1599 176.938 42.8581 176.673 42.4556C176.411 42.0491 176.28 41.54 176.28 40.9283C176.28 40.4131 176.371 39.9785 176.552 39.6243C176.733 39.2701 176.983 38.9824 177.301 38.761C177.619 38.5396 177.985 38.3726 178.399 38.2599C178.814 38.1432 179.257 38.0647 179.727 38.0245C180.255 37.9762 180.679 37.9259 181.001 37.8736C181.323 37.8172 181.557 37.7388 181.701 37.6381C181.85 37.5335 181.925 37.3866 181.925 37.1974V37.1673C181.925 36.8574 181.818 36.6179 181.605 36.4489C181.392 36.2798 181.104 36.1953 180.742 36.1953C180.351 36.1953 180.037 36.2798 179.8 36.4489C179.562 36.6179 179.411 36.8513 179.347 37.1491L176.624 37.0526C176.705 36.4891 176.912 35.986 177.246 35.5433C177.584 35.0966 178.047 34.7464 178.635 34.4929C179.226 34.2353 179.937 34.1065 180.766 34.1065C181.357 34.1065 181.903 34.177 182.402 34.3178C182.901 34.4547 183.335 34.6559 183.706 34.9215C184.076 35.1831 184.362 35.5051 184.563 35.8874C184.768 36.2698 184.871 36.7064 184.871 37.1974V43.5H182.094V42.2081H182.021C181.856 42.522 181.645 42.7876 181.388 43.005C181.134 43.2223 180.834 43.3853 180.488 43.494C180.146 43.6026 179.76 43.657 179.329 43.657ZM180.241 41.7251C180.558 41.7251 180.844 41.6607 181.098 41.532C181.355 41.4032 181.561 41.2261 181.714 41.0007C181.866 40.7713 181.943 40.5057 181.943 40.2038V39.3224C181.858 39.3667 181.756 39.407 181.635 39.4432C181.518 39.4794 181.39 39.5136 181.249 39.5458C181.108 39.578 180.963 39.6062 180.814 39.6303C180.665 39.6545 180.522 39.6766 180.385 39.6967C180.108 39.741 179.87 39.8094 179.673 39.902C179.48 39.9945 179.331 40.1153 179.226 40.2642C179.126 40.4091 179.075 40.5821 179.075 40.7834C179.075 41.0892 179.184 41.3227 179.401 41.4837C179.623 41.6446 179.902 41.7251 180.241 41.7251ZM191.946 34.2273V36.4006H185.982V34.2273L191.946 34.2273ZM187.225 43.5V33.7564C187.225 33.04 187.36 32.4464 187.63 31.9755C187.899 31.5006 188.274 31.1464 188.753 30.913C189.232 30.6755 189.785 30.5568 190.413 30.5568C190.823 30.5568 191.21 30.589 191.572 30.6534C191.938 30.7138 192.21 30.7681 192.387 30.8164L191.916 32.9776C191.807 32.9414 191.674 32.9112 191.518 32.8871C191.365 32.8629 191.22 32.8508 191.083 32.8508C190.737 32.8508 190.499 32.9273 190.371 33.0803C190.242 33.2332 190.177 33.4425 190.177 33.7081V43.5H187.225ZM198.6 34.2273V36.4006H192.751V34.2273H198.6ZM193.976 32.0057H196.928V40.5842C196.928 40.7653 196.956 40.9122 197.013 41.0249C197.073 41.1335 197.16 41.212 197.272 41.2603C197.385 41.3046 197.52 41.3267 197.677 41.3267C197.789 41.3267 197.908 41.3166 198.033 41.2965C198.162 41.2724 198.258 41.2522 198.323 41.2361L198.769 43.3672C198.629 43.4074 198.429 43.4577 198.172 43.5181C197.918 43.5785 197.614 43.6167 197.26 43.6328C196.568 43.665 195.974 43.5845 195.479 43.3913C194.988 43.1941 194.612 42.8883 194.35 42.4737C194.093 42.0592 193.968 41.538 193.976 40.9102V32.0057Z" fill="url(#paint1_linear_1_50)"/>
</g>
<rect x="1.05" y="1.05" width="209.9" height="53.9" rx="6.95" stroke="white" stroke-opacity="0.15" stroke-width="2.1"/>
<defs>
<filter id="filter0_d_1_50" x="54.4" y="3.9" width="151.2" height="48.2" filterUnits="userSpaceOnUse" color-interpolation-filters="sRGB">
<feFlood flood-opacity="0" result="BackgroundImageFix"/>
<feColorMatrix in="SourceAlpha" type="matrix" values="0 0 0 0 0 0 0 0 0 0 0 0 0 0 0 0 0 0 127 0" result="hardAlpha"/>
<feOffset/>
<feGaussianBlur stdDeviation="2.8"/>
<feComposite in2="hardAlpha" operator="out"/>
<feColorMatrix type="matrix" values="0 0 0 0 0 0 0 0 0 0 0 0 0 0 0 0 0 0 0.25 0"/>
<feBlend mode="normal" in2="BackgroundImageFix" result="effect1_dropShadow_1_50"/>
<feBlend mode="normal" in="SourceGraphic" in2="effect1_dropShadow_1_50" result="shape"/>
</filter>
<linearGradient id="paint0_linear_1_50" x1="106" y1="0" x2="106" y2="56" gradientUnits="userSpaceOnUse">
<stop stop-color="#102944"/>
<stop offset="1" stop-color="#031121"/>
</linearGradient>
<linearGradient id="paint1_linear_1_50" x1="61" y1="37.5" x2="196.5" y2="37" gradientUnits="userSpaceOnUse">
<stop stop-color="#00FF19" stop-opacity="0.93"/>
<stop offset="0.609375" stop-color="#3DA2FF"/>
</linearGradient>
<clipPath id="clip0_1_50">
<rect width="40" height="40" fill="white" transform="translate(12 8)"/>
</clipPath>
</defs>
</svg>
